<svg width="22" height="21" viewBox="0 0 22 21" fill="none" xmlns="http://www.w3.org/2000/svg">
<path d="M11.9016 9.34844C11.9016 9.10974 11.8067 8.88082 11.638 8.71204C11.4692 8.54326 11.2403 8.44844 11.0016 8.44844C10.7629 8.44844 10.5339 8.54326 10.3652 8.71204C10.1964 8.88082 10.1016 9.10974 10.1016 9.34844V11.6984H7.75156C7.51287 11.6984 7.28395 11.7933 7.11517 11.962C6.94638 12.1308 6.85156 12.3597 6.85156 12.5984C6.85156 12.8371 6.94638 13.0661 7.11517 13.2348C7.28395 13.4036 7.51287 13.4984 7.75156 13.4984H10.1016V15.8484C10.1016 16.0871 10.1964 16.3161 10.3652 16.4848C10.5339 16.6536 10.7629 16.7484 11.0016 16.7484C11.2403 16.7484 11.4692 16.6536 11.638 16.4848C11.8067 16.3161 11.9016 16.0871 11.9016 15.8484V13.4984H14.2516C14.4903 13.4984 14.7192 13.4036 14.888 13.2348C15.0567 13.0661 15.1516 12.8371 15.1516 12.5984C15.1516 12.3597 15.0567 12.1308 14.888 11.962C14.7192 11.7933 14.4903 11.6984 14.2516 11.6984H11.9016V9.34844ZM7.11517 0.912042C6.94638 1.08082 6.85156 1.30974 6.85156 1.54844V4.54844H4.50156C3.40091 4.54844 2.34535 4.98567 1.56707 5.76394C0.788794 6.54222 0.351562 7.59779 0.351562 8.69844V16.4984C0.351562 17.5991 0.788794 18.6547 1.56707 19.4329C2.34535 20.2112 3.40091 20.6484 4.50156 20.6484H17.5016C18.6022 20.6484 19.6578 20.2112 20.4361 19.4329C21.2143 18.6547 21.6516 17.5991 21.6516 16.4984V8.69844C21.6516 7.59779 21.2143 6.54222 20.4361 5.76394C19.6578 4.98567 18.6022 4.54844 17.5016 4.54844H15.1516V1.54844C15.1516 1.30974 15.0567 1.08082 14.888 0.912042C14.7192 0.743259 14.4903 0.648438 14.2516 0.648438H7.75156C7.51287 0.648438 7.28395 0.743259 7.11517 0.912042ZM8.65156 2.44844H13.3516V4.54844H8.65156V2.44844ZM2.83986 7.03674C3.28057 6.59603 3.8783 6.34844 4.50156 6.34844H17.5016C18.1248 6.34844 18.7226 6.59603 19.1633 7.03674C19.604 7.47745 19.8516 8.07518 19.8516 8.69844V16.4984C19.8516 17.1217 19.604 17.7194 19.1633 18.1601C18.7226 18.6008 18.1248 18.8484 17.5016 18.8484H4.50156C3.8783 18.8484 3.28057 18.6008 2.83986 18.1601C2.39915 17.7194 2.15156 17.1217 2.15156 16.4984V8.69844C2.15156 8.07518 2.39915 7.47745 2.83986 7.03674Z" fill="#7B8CB5" stroke="#7B8CB5" stroke-width="0.5"/>
</svg>
