<svg width="15" height="15" viewBox="0 0 15 15" fill="none" xmlns="http://www.w3.org/2000/svg">
<path d="M9.75 0.811344C9.74978 0.658456 9.70643 0.508732 9.62493 0.379378C9.54343 0.250024 9.42709 0.14629 9.28927 0.0800977C9.15145 0.0139052 8.99776 -0.0120601 8.84585 0.00518654C8.69393 0.0224332 8.54997 0.0821914 8.4305 0.177594L4.59062 3.24884H0.8125C0.597012 3.24884 0.390349 3.33445 0.237976 3.48682C0.0856026 3.63919 0 3.84586 0 4.06134V10.5613C0 10.7768 0.0856026 10.9835 0.237976 11.1359C0.390349 11.2882 0.597012 11.3738 0.8125 11.3738H4.59062L8.4305 14.4451C8.54997 14.5405 8.69393 14.6003 8.84585 14.6175C8.99776 14.6347 9.15145 14.6088 9.28927 14.5426C9.42709 14.4764 9.54343 14.3727 9.62493 14.2433C9.70643 14.114 9.74978 13.9642 9.75 13.8113V0.811344ZM14.6656 7.31134C14.6669 8.27182 14.4783 9.22308 14.1108 10.1104C13.7432 10.9978 13.2039 11.8038 12.5239 12.4821L11.375 11.3332C11.9039 10.8056 12.3233 10.1787 12.6092 9.48851C12.895 8.7983 13.0417 8.0584 13.0406 7.31134C13.0416 6.5643 12.8949 5.82443 12.6091 5.13423C12.3232 4.44403 11.9038 3.81711 11.375 3.28947L12.5239 2.14059C13.2039 2.81888 13.7432 3.62487 14.1108 4.51224C14.4783 5.39961 14.6669 6.35087 14.6656 7.31134V7.31134Z" fill="#2176FF"/>
</svg>
