<svg width="20" height="21" viewBox="0 0 20 21" fill="none" xmlns="http://www.w3.org/2000/svg">
<path d="M9.75 0C8.67868 0 7.63143 0.317682 6.74066 0.912873C5.8499 1.50806 5.15563 2.35403 4.74565 3.3438C4.33568 4.33356 4.22841 5.42267 4.43741 6.47341C4.64642 7.52414 5.1623 8.48929 5.91984 9.24683C6.67737 10.0044 7.64253 10.5203 8.69326 10.7293C9.74399 10.9383 10.8331 10.831 11.8229 10.421C12.8126 10.011 13.6586 9.31677 14.2538 8.426C14.849 7.53524 15.1667 6.48798 15.1667 5.41667C15.1667 3.98008 14.596 2.60233 13.5802 1.5865C12.5643 0.570683 11.1866 0 9.75 0V0ZM9.75 8.66667C9.10721 8.66667 8.47886 8.47606 7.9444 8.11894C7.40994 7.76183 6.99338 7.25425 6.74739 6.66039C6.50141 6.06653 6.43705 5.41306 6.56245 4.78262C6.68785 4.15218 6.99738 3.57309 7.4519 3.11857C7.90642 2.66405 8.48552 2.35452 9.11596 2.22911C9.7464 2.10371 10.3999 2.16807 10.9937 2.41406C11.5876 2.66004 12.0952 3.0766 12.4523 3.61106C12.8094 4.14552 13 4.77388 13 5.41667C13 6.27862 12.6576 7.10527 12.0481 7.71476C11.4386 8.32426 10.612 8.66667 9.75 8.66667V8.66667ZM19.5 20.5833V19.5C19.5 17.4888 18.701 15.5599 17.2789 14.1378C15.8567 12.7156 13.9279 11.9167 11.9167 11.9167H7.58333C5.57211 11.9167 3.64326 12.7156 2.22111 14.1378C0.798956 15.5599 0 17.4888 0 19.5V20.5833H2.16667V19.5C2.16667 18.0634 2.73735 16.6857 3.75317 15.6698C4.76899 14.654 6.14674 14.0833 7.58333 14.0833H11.9167C13.3533 14.0833 14.731 14.654 15.7468 15.6698C16.7627 16.6857 17.3333 18.0634 17.3333 19.5V20.5833H19.5Z" fill="#313A5A"/>
</svg>
