<svg width="11" height="18" viewBox="0 0 11 18" fill="none" xmlns="http://www.w3.org/2000/svg">
<path d="M8.21 17.1251C7.9911 17.1242 7.77463 17.0792 7.57358 16.9926C7.37253 16.906 7.19104 16.7797 7.04 16.6213L0.767497 10.1213C0.469753 9.81755 0.302979 9.40915 0.302979 8.98381C0.302979 8.55846 0.469753 8.15007 0.767497 7.84631L7.2675 1.34631C7.41901 1.19479 7.59888 1.07461 7.79684 0.992611C7.9948 0.910613 8.20698 0.868408 8.42125 0.868408C8.63552 0.868408 8.84769 0.910613 9.04565 0.992611C9.24361 1.07461 9.42349 1.19479 9.575 1.34631C9.72651 1.49782 9.8467 1.67769 9.9287 1.87565C10.0107 2.07361 10.0529 2.28579 10.0529 2.50006C10.0529 2.71433 10.0107 2.9265 9.9287 3.12446C9.8467 3.32242 9.72651 3.50229 9.575 3.65381L4.2125 9.00006L9.38 14.3626C9.68266 14.667 9.85254 15.0789 9.85254 15.5082C9.85254 15.9375 9.68266 16.3493 9.38 16.6538C9.22623 16.8064 9.04351 16.9267 8.84259 17.0076C8.64166 17.0885 8.42658 17.1285 8.21 17.1251Z" fill="#313A5A"/>
</svg>
