<svg width="33" height="32" viewBox="0 0 33 32" fill="none" xmlns="http://www.w3.org/2000/svg">
<path d="M24.4605 5.11001L19.2185 7.07601C18.9401 6.74079 18.5915 6.47072 18.1974 6.28481C17.8033 6.0989 17.3733 6.00168 16.9375 6.00001C15.2835 6.00001 13.9375 7.34601 13.9375 9.00001C13.9375 9.02101 13.9425 9.04101 13.9435 9.06301L8.9375 11L3.9375 19.75V20.016C3.9375 22.772 6.1805 25 8.9375 25C11.6945 25 13.9375 22.772 13.9375 20.016V19.75L9.9475 12.766L14.6625 10.932C15.0005 11.33 15.4355 11.637 15.9375 11.816V26H21.9375V24H17.9375V11.816C18.5207 11.6103 19.0259 11.2292 19.384 10.7251C19.742 10.2209 19.9354 9.61837 19.9375 9.00001C19.9375 8.98101 19.9315 8.96401 19.9315 8.94501L24.1485 7.36301L19.9375 14.734V15C19.9375 17.757 22.1805 20 24.9375 20C27.6945 20 29.9375 17.757 29.9375 15V14.734L25.4475 6.87701L24.4605 5.10901V5.11001ZM16.9375 8.00001C17.195 8.01153 17.4381 8.12191 17.6162 8.30819C17.7944 8.49447 17.8938 8.74227 17.8938 9.00001C17.8938 9.25775 17.7944 9.50555 17.6162 9.69183C17.4381 9.8781 17.195 9.98849 16.9375 10C16.68 9.98849 16.4369 9.8781 16.2588 9.69183C16.0806 9.50555 15.9812 9.25775 15.9812 9.00001C15.9812 8.74227 16.0806 8.49447 16.2588 8.30819C16.4369 8.12191 16.68 8.01153 16.9375 8.00001V8.00001ZM24.9375 10.016L27.2145 14H22.6605L24.9375 10.016ZM8.9375 15.03L11.2055 19H6.6695L8.9375 15.031V15.03ZM22.1235 16H27.7515C27.5464 16.5832 27.1658 17.0885 26.6619 17.4466C26.1581 17.8047 25.5557 17.9981 24.9375 18C23.6355 18 22.5375 17.162 22.1235 16ZM6.1175 21H11.7575C11.5544 21.5869 11.1739 22.0961 10.6687 22.4573C10.1635 22.8184 9.55852 23.0137 8.9375 23.016C8.31648 23.0137 7.71153 22.8184 7.20632 22.4573C6.70112 22.0961 6.32063 21.5869 6.1175 21Z" fill="currentColor"/>
</svg>
