<svg width="20" height="22" viewBox="0 0 20 22" fill="none" xmlns="http://www.w3.org/2000/svg">
<path d="M17.3333 12.5515V8.66667C17.3333 5.18158 14.9662 2.24575 11.7596 1.36283C11.4422 0.563333 10.6665 0 9.75 0C8.8335 0 8.05783 0.563333 7.74042 1.36283C4.53375 2.24683 2.16667 5.18158 2.16667 8.66667V12.5515L0.317418 14.4007C0.216622 14.5012 0.136685 14.6206 0.0822092 14.752C0.0277335 14.8835 -0.000205236 15.0244 1.13498e-06 15.1667V17.3333C1.13498e-06 17.6206 0.114138 17.8962 0.317302 18.0994C0.520466 18.3025 0.796017 18.4167 1.08333 18.4167H18.4167C18.704 18.4167 18.9795 18.3025 19.1827 18.0994C19.3859 17.8962 19.5 17.6206 19.5 17.3333V15.1667C19.5002 15.0244 19.4723 14.8835 19.4178 14.752C19.3633 14.6206 19.2834 14.5012 19.1826 14.4007L17.3333 12.5515ZM17.3333 16.25H2.16667V15.6152L4.01592 13.7659C4.11671 13.6655 4.19665 13.5461 4.25113 13.4147C4.3056 13.2832 4.33354 13.1423 4.33333 13V8.66667C4.33333 5.67992 6.76325 3.25 9.75 3.25C12.7368 3.25 15.1667 5.67992 15.1667 8.66667V13C15.1667 13.2882 15.2804 13.5633 15.4841 13.7659L17.3333 15.6152V16.25ZM9.75 21.6667C10.4209 21.6675 11.0754 21.4593 11.6225 21.071C12.1696 20.6827 12.5822 20.1336 12.8028 19.5H6.69717C6.9178 20.1336 7.33035 20.6827 7.87747 21.071C8.42459 21.4593 9.07909 21.6675 9.75 21.6667V21.6667Z" fill="#313A5A"/>
</svg>
