<svg width="20" height="17" viewBox="0 0 20 17" fill="none" xmlns="http://www.w3.org/2000/svg">
<path d="M6.5 7.5L5.9 6.7C5.76374 6.80231 5.65588 6.93774 5.58666 7.09343C5.51744 7.24913 5.48915 7.41993 5.50448 7.58963C5.51981 7.75933 5.57824 7.9223 5.67424 8.06308C5.77024 8.20385 5.90062 8.31776 6.053 8.394L6.5 7.5ZM10.5 9.5L11.49 9.641C11.5195 9.43333 11.4829 9.22165 11.3855 9.03591C11.288 8.85017 11.1346 8.69977 10.947 8.606L10.5 9.5ZM9.01 12.859C8.99086 12.9893 8.99765 13.1221 9.02997 13.2497C9.06229 13.3774 9.11951 13.4974 9.19833 13.6029C9.27716 13.7084 9.37605 13.7973 9.48932 13.8645C9.60259 13.9316 9.72801 13.9758 9.85838 13.9943C9.98876 14.0129 10.1215 14.0055 10.249 13.9727C10.3766 13.9398 10.4963 13.882 10.6015 13.8027C10.7066 13.7235 10.7951 13.6242 10.8617 13.5106C10.9284 13.3971 10.972 13.2715 10.99 13.141L9.01 12.859ZM10.5 4.5L11.207 3.793C11.0368 3.6228 10.8109 3.5197 10.5709 3.50261C10.3308 3.48553 10.0926 3.55561 9.9 3.7L10.5 4.5ZM13 7L12.293 7.707C12.4805 7.89455 12.7348 7.99994 13 8V7ZM15 8C15.2652 8 15.5196 7.89464 15.7071 7.70711C15.8946 7.51957 16 7.26522 16 7C16 6.73478 15.8946 6.48043 15.7071 6.29289C15.5196 6.10536 15.2652 6 15 6V8ZM6 13C6 13.5304 5.78929 14.0391 5.41421 14.4142C5.03914 14.7893 4.53043 15 4 15V17C5.06087 17 6.07828 16.5786 6.82843 15.8284C7.57857 15.0783 8 14.0609 8 13H6ZM4 15C3.46957 15 2.96086 14.7893 2.58579 14.4142C2.21071 14.0391 2 13.5304 2 13H0C0 14.0609 0.421427 15.0783 1.17157 15.8284C1.92172 16.5786 2.93913 17 4 17V15ZM2 13C2 12.4696 2.21071 11.9609 2.58579 11.5858C2.96086 11.2107 3.46957 11 4 11V9C2.93913 9 1.92172 9.42143 1.17157 10.1716C0.421427 10.9217 0 11.9391 0 13H2ZM4 11C4.53043 11 5.03914 11.2107 5.41421 11.5858C5.78929 11.9609 6 12.4696 6 13H8C8 11.9391 7.57857 10.9217 6.82843 10.1716C6.07828 9.42143 5.06087 9 4 9V11ZM6.053 8.394L10.053 10.394L10.947 8.606L6.947 6.606L6.053 8.394ZM9.51 9.359L9.01 12.859L10.99 13.141L11.49 9.641L9.51 9.359ZM7.1 8.3L11.1 5.3L9.9 3.7L5.9 6.7L7.1 8.3ZM9.793 5.207L12.293 7.707L13.707 6.293L11.207 3.793L9.793 5.207ZM13 8H15V6H13V8ZM18 13C18 13.5304 17.7893 14.0391 17.4142 14.4142C17.0391 14.7893 16.5304 15 16 15V17C17.0609 17 18.0783 16.5786 18.8284 15.8284C19.5786 15.0783 20 14.0609 20 13H18ZM16 15C15.4696 15 14.9609 14.7893 14.5858 14.4142C14.2107 14.0391 14 13.5304 14 13H12C12 14.0609 12.4214 15.0783 13.1716 15.8284C13.9217 16.5786 14.9391 17 16 17V15ZM14 13C14 12.4696 14.2107 11.9609 14.5858 11.5858C14.9609 11.2107 15.4696 11 16 11V9C14.9391 9 13.9217 9.42143 13.1716 10.1716C12.4214 10.9217 12 11.9391 12 13H14ZM16 11C16.5304 11 17.0391 11.2107 17.4142 11.5858C17.7893 11.9609 18 12.4696 18 13H20C20 11.9391 19.5786 10.9217 18.8284 10.1716C18.0783 9.42143 17.0609 9 16 9V11ZM13 2V4C13.5304 4 14.0391 3.78929 14.4142 3.41421C14.7893 3.03914 15 2.53043 15 2H13ZM13 2H11C11 2.53043 11.2107 3.03914 11.5858 3.41421C11.9609 3.78929 12.4696 4 13 4V2ZM13 2V0C12.4696 0 11.9609 0.210714 11.5858 0.585786C11.2107 0.960859 11 1.46957 11 2H13ZM13 2H15C15 1.46957 14.7893 0.960859 14.4142 0.585786C14.0391 0.210714 13.5304 0 13 0V2Z" fill="currentColor"/>
</svg>
