<svg width="239" height="317" viewBox="0 0 239 317" fill="none" xmlns="http://www.w3.org/2000/svg">
<path d="M239 119.183C239 173.437 166.18 270.025 134.251 309.877C126.595 319.374 112.405 319.374 104.749 309.877C72.8203 270.025 0 173.437 0 119.183C0 53.3842 53.526 0 119.5 0C185.474 0 239 53.3842 239 119.183Z" fill="#F79824"/>
<circle cx="119.5" cy="121.5" r="76.5" fill="white"/>
<path d="M143.39 110.154L125.345 92H105.5V101.077H121.655L130.655 110.154H94.25C83 110.154 74 119.231 74 130.577C74 141.923 83 151 94.25 151C104.24 151 112.52 143.648 114.14 134.072L123.68 128.308C123.5 129.079 123.5 129.805 123.5 130.577C123.5 141.923 132.5 151 143.75 151C155 151 164 141.923 164 130.577C164 119.231 155 110.154 143.75 110.154M104.78 134.026C103.25 138.61 99.11 141.923 94.115 141.923C91.1313 141.923 88.2698 140.728 86.16 138.6C84.0503 136.472 82.865 133.586 82.865 130.577C82.865 127.568 84.0503 124.682 86.16 122.554C88.2698 120.426 91.1313 119.231 94.115 119.231C99.155 119.231 103.25 122.589 104.78 127.173H92V133.981L104.78 134.026ZM143.615 141.923C140.631 141.923 137.77 140.728 135.66 138.6C133.55 136.472 132.365 133.586 132.365 130.577C132.365 127.568 133.55 124.682 135.66 122.554C137.77 120.426 140.631 119.231 143.615 119.231C146.599 119.231 149.46 120.426 151.57 122.554C153.68 124.682 154.865 127.568 154.865 130.577C154.865 133.586 153.68 136.472 151.57 138.6C149.46 140.728 146.599 141.923 143.615 141.923Z" fill="#F79824"/>
</svg>
