<svg width="50" height="50" viewBox="0 0 50 50" fill="none" xmlns="http://www.w3.org/2000/svg">
<circle cx="25" cy="25" r="25" fill="#F7F8FA"/>
<path d="M34.7513 15.25H27.168C26.3659 15.2527 25.5935 15.5539 25.0013 16.095C24.4091 15.5539 23.6368 15.2527 22.8346 15.25H15.2513C14.964 15.25 14.6884 15.3641 14.4853 15.5673C14.2821 15.7705 14.168 16.046 14.168 16.3333V32.5833C14.168 32.8707 14.2821 33.1462 14.4853 33.3494C14.6884 33.5525 14.964 33.6667 15.2513 33.6667H21.4891C22.059 33.6667 22.618 33.8985 23.021 34.3015L24.2354 35.5159C24.2451 35.5257 24.2581 35.5289 24.2679 35.5387C24.3611 35.6243 24.4651 35.7001 24.5864 35.751H24.5886C24.8528 35.8604 25.1498 35.8604 25.4141 35.751H25.4162C25.5376 35.7001 25.6416 35.6243 25.7347 35.5387C25.7445 35.5289 25.7575 35.5257 25.7672 35.5159L26.9816 34.3015C27.3889 33.8966 27.9392 33.6686 28.5135 33.6667H34.7513C35.0386 33.6667 35.3142 33.5525 35.5173 33.3494C35.7205 33.1462 35.8346 32.8707 35.8346 32.5833V16.3333C35.8346 16.046 35.7205 15.7705 35.5173 15.5673C35.3142 15.3641 35.0386 15.25 34.7513 15.25V15.25ZM21.4891 31.5H16.3346V17.4167H22.8346C23.4326 17.4167 23.918 17.9031 23.918 18.5V32.2464C23.2002 31.7624 22.3548 31.5026 21.4891 31.5V31.5ZM33.668 31.5H28.5135C27.6479 31.5 26.7975 31.7665 26.0846 32.2464V18.5C26.0846 17.9031 26.57 17.4167 27.168 17.4167H33.668V31.5Z" fill="#313A5A"/>
</svg>
