<svg width="21" height="24" viewBox="0 0 21 24" fill="none" xmlns="http://www.w3.org/2000/svg">

<path d="M18.6667 0H3.5C2.093 0 0 0.932167 0 3.5V19.8333C0 22.4012 2.093 23.3333 3.5 23.3333H21V21H3.514C2.975 20.986 2.33333 20.7725 2.33333 19.8333C2.33333 19.7155 2.34383 19.6105 2.36133 19.5148C2.492 18.844 3.0415 18.6783 3.51283 18.6667H19.8333C19.8543 18.6667 19.8695 18.6562 19.8905 18.655H21V2.33333C21 1.0465 19.9535 0 18.6667 0ZM18.6667 16.3333H2.33333V3.5C2.33333 2.55967 2.975 2.34733 3.5 2.33333H11.6667V10.5L14 9.33333L16.3333 10.5V2.33333H18.6667V16.3333Z" 

fill="currentColor"/>

</svg>
