<svg width="15" height="16" viewBox="0 0 15 16" fill="none" xmlns="http://www.w3.org/2000/svg">
<path d="M3.95834 10.2917H6.33334V12.6667H7.91667V10.2917H10.2917V8.70833H7.91667V6.33333H6.33334V8.70833H3.95834V10.2917Z" fill="currentColor"/>
<path d="M12.6667 1.58333H11.0833V0H9.5V1.58333H4.75V0H3.16667V1.58333H1.58333C0.710125 1.58333 0 2.29346 0 3.16667V14.25C0 15.1232 0.710125 15.8333 1.58333 15.8333H12.6667C13.5399 15.8333 14.25 15.1232 14.25 14.25V3.16667C14.25 2.29346 13.5399 1.58333 12.6667 1.58333ZM12.6683 14.25H1.58333V4.75H12.6667L12.6683 14.25Z" fill="currentColor"/>
</svg>
