<svg width="18" height="14" viewBox="0 0 18 14" fill="none" xmlns="http://www.w3.org/2000/svg">
<path d="M2.25 2.25C1.65326 2.25 1.08097 2.48705 0.65901 2.90901C0.237053 3.33097 0 3.90326 0 4.5L0 11.25C0 11.8467 0.237053 12.419 0.65901 12.841C1.08097 13.2629 1.65326 13.5 2.25 13.5H15.75C16.3467 13.5 16.919 13.2629 17.341 12.841C17.7629 12.419 18 11.8467 18 11.25V4.5C18 3.90326 17.7629 3.33097 17.341 2.90901C16.919 2.48705 16.3467 2.25 15.75 2.25H14.4315C13.8348 2.24987 13.2626 2.01274 12.8407 1.59075L11.9093 0.65925C11.4874 0.237264 10.9152 0.000127434 10.3185 0H7.6815C7.08481 0.000127434 6.51261 0.237264 6.09075 0.65925L5.15925 1.59075C4.73739 2.01274 4.16519 2.24987 3.5685 2.25H2.25ZM2.8125 4.5C2.66332 4.5 2.52024 4.44074 2.41475 4.33525C2.30926 4.22976 2.25 4.08668 2.25 3.9375C2.25 3.78832 2.30926 3.64524 2.41475 3.53975C2.52024 3.43426 2.66332 3.375 2.8125 3.375C2.96168 3.375 3.10476 3.43426 3.21025 3.53975C3.31574 3.64524 3.375 3.78832 3.375 3.9375C3.375 4.08668 3.31574 4.22976 3.21025 4.33525C3.10476 4.44074 2.96168 4.5 2.8125 4.5ZM12.9375 7.3125C12.9375 8.35679 12.5227 9.35831 11.7842 10.0967C11.0458 10.8352 10.0443 11.25 9 11.25C7.95571 11.25 6.95419 10.8352 6.21577 10.0967C5.47734 9.35831 5.0625 8.35679 5.0625 7.3125C5.0625 6.26821 5.47734 5.26669 6.21577 4.52827C6.95419 3.78984 7.95571 3.375 9 3.375C10.0443 3.375 11.0458 3.78984 11.7842 4.52827C12.5227 5.26669 12.9375 6.26821 12.9375 7.3125Z" fill="#2176FF"/>
<path d="M11.8125 7.3125C11.8125 8.05842 11.5162 8.77379 10.9887 9.30124C10.4613 9.82868 9.74592 10.125 9 10.125C8.25408 10.125 7.53871 9.82868 7.01126 9.30124C6.48382 8.77379 6.1875 8.05842 6.1875 7.3125C6.1875 6.56658 6.48382 5.85121 7.01126 5.32376C7.53871 4.79632 8.25408 4.5 9 4.5C9.74592 4.5 10.4613 4.79632 10.9887 5.32376C11.5162 5.85121 11.8125 6.56658 11.8125 7.3125V7.3125Z" fill="#2176FF"/>
</svg>
