<svg width="50" height="50" viewBox="0 0 50 50" fill="none" xmlns="http://www.w3.org/2000/svg">
<circle cx="25" cy="25" r="25" fill="#F7F8FA"/>
<path d="M14.6016 16.5516C14.6016 16.0344 14.807 15.5384 15.1727 15.1727C15.5384 14.807 16.0344 14.6016 16.5516 14.6016H17.8516C18.3687 14.6016 18.8647 14.807 19.2304 15.1727C19.5961 15.5384 19.8016 16.0344 19.8016 16.5516V17.8516C19.8016 18.3687 19.5961 18.8647 19.2304 19.2304C18.8647 19.5961 18.3687 19.8016 17.8516 19.8016H16.5516C16.0344 19.8016 15.5384 19.5961 15.1727 19.2304C14.807 18.8647 14.6016 18.3687 14.6016 17.8516V16.5516ZM16.5516 15.9016C16.3792 15.9016 16.2138 15.97 16.0919 16.0919C15.97 16.2138 15.9016 16.3792 15.9016 16.5516V17.8516C15.9016 18.024 15.97 18.1893 16.0919 18.3112C16.2138 18.4331 16.3792 18.5016 16.5516 18.5016H17.8516C18.024 18.5016 18.1893 18.4331 18.3112 18.3112C18.4331 18.1893 18.5016 18.024 18.5016 17.8516V16.5516C18.5016 16.3792 18.4331 16.2138 18.3112 16.0919C18.1893 15.97 18.024 15.9016 17.8516 15.9016H16.5516ZM14.6016 24.3516C14.6016 23.8344 14.807 23.3384 15.1727 22.9727C15.5384 22.607 16.0344 22.4016 16.5516 22.4016H17.8516C18.3687 22.4016 18.8647 22.607 19.2304 22.9727C19.5961 23.3384 19.8016 23.8344 19.8016 24.3516V25.6516C19.8016 26.1687 19.5961 26.6647 19.2304 27.0304C18.8647 27.3961 18.3687 27.6016 17.8516 27.6016H16.5516C16.0344 27.6016 15.5384 27.3961 15.1727 27.0304C14.807 26.6647 14.6016 26.1687 14.6016 25.6516V24.3516ZM16.5516 23.7016C16.3792 23.7016 16.2138 23.77 16.0919 23.8919C15.97 24.0138 15.9016 24.1792 15.9016 24.3516V25.6516C15.9016 25.824 15.97 25.9893 16.0919 26.1112C16.2138 26.2331 16.3792 26.3016 16.5516 26.3016H17.8516C18.024 26.3016 18.1893 26.2331 18.3112 26.1112C18.4331 25.9893 18.5016 25.824 18.5016 25.6516V24.3516C18.5016 24.1792 18.4331 24.0138 18.3112 23.8919C18.1893 23.77 18.024 23.7016 17.8516 23.7016H16.5516ZM14.6016 32.1516C14.6016 31.6344 14.807 31.1384 15.1727 30.7727C15.5384 30.407 16.0344 30.2016 16.5516 30.2016H17.8516C18.3687 30.2016 18.8647 30.407 19.2304 30.7727C19.5961 31.1384 19.8016 31.6344 19.8016 32.1516V33.4516C19.8016 33.9687 19.5961 34.4647 19.2304 34.8304C18.8647 35.1961 18.3687 35.4016 17.8516 35.4016H16.5516C16.0344 35.4016 15.5384 35.1961 15.1727 34.8304C14.807 34.4647 14.6016 33.9687 14.6016 33.4516V32.1516ZM16.5516 31.5016C16.3792 31.5016 16.2138 31.57 16.0919 31.6919C15.97 31.8138 15.9016 31.9792 15.9016 32.1516V33.4516C15.9016 33.624 15.97 33.7893 16.0919 33.9112C16.2138 34.0331 16.3792 34.1016 16.5516 34.1016H17.8516C18.024 34.1016 18.1893 34.0331 18.3112 33.9112C18.4331 33.7893 18.5016 33.624 18.5016 33.4516V32.1516C18.5016 31.9792 18.4331 31.8138 18.3112 31.6919C18.1893 31.57 18.024 31.5016 17.8516 31.5016H16.5516ZM22.4016 17.8516C22.4016 17.6792 22.47 17.5138 22.5919 17.3919C22.7138 17.27 22.8792 17.2016 23.0516 17.2016H34.7516C34.924 17.2016 35.0893 17.27 35.2112 17.3919C35.3331 17.5138 35.4016 17.6792 35.4016 17.8516C35.4016 18.024 35.3331 18.1893 35.2112 18.3112C35.0893 18.4331 34.924 18.5016 34.7516 18.5016H23.0516C22.8792 18.5016 22.7138 18.4331 22.5919 18.3112C22.47 18.1893 22.4016 18.024 22.4016 17.8516ZM22.4016 25.6516C22.4016 25.4792 22.47 25.3138 22.5919 25.1919C22.7138 25.07 22.8792 25.0016 23.0516 25.0016H34.7516C34.924 25.0016 35.0893 25.07 35.2112 25.1919C35.3331 25.3138 35.4016 25.4792 35.4016 25.6516C35.4016 25.824 35.3331 25.9893 35.2112 26.1112C35.0893 26.2331 34.924 26.3016 34.7516 26.3016H23.0516C22.8792 26.3016 22.7138 26.2331 22.5919 26.1112C22.47 25.9893 22.4016 25.824 22.4016 25.6516ZM22.4016 33.4516C22.4016 33.2792 22.47 33.1138 22.5919 32.9919C22.7138 32.87 22.8792 32.8016 23.0516 32.8016H34.7516C34.924 32.8016 35.0893 32.87 35.2112 32.9919C35.3331 33.1138 35.4016 33.2792 35.4016 33.4516C35.4016 33.624 35.3331 33.7893 35.2112 33.9112C35.0893 34.0331 34.924 34.1016 34.7516 34.1016H23.0516C22.8792 34.1016 22.7138 34.0331 22.5919 33.9112C22.47 33.7893 22.4016 33.624 22.4016 33.4516Z" fill="#313A5A" stroke="#313A5A" stroke-width="0.5"/>
</svg>
