<svg width="24" height="23" viewBox="0 0 24 23" fill="none" xmlns="http://www.w3.org/2000/svg">
<path d="M12 6.66797V9.91797M12 9.91797V13.168M12 9.91797H15.25M12 9.91797H8.75" stroke="#313A5A" stroke-width="2" stroke-linecap="round"/>
<path d="M14.168 18.5833C18.2532 18.5833 20.2964 18.5833 21.565 17.3137C22.8346 16.0451 22.8346 14.0019 22.8346 9.91667C22.8346 5.83142 22.8346 3.78825 21.565 2.51967C20.2964 1.25 18.2532 1.25 14.168 1.25H9.83464C5.74939 1.25 3.70622 1.25 2.43764 2.51967C1.16797 3.78825 1.16797 5.83142 1.16797 9.91667C1.16797 14.0019 1.16797 16.0451 2.43764 17.3137C3.14505 18.0222 4.09297 18.3352 5.5013 18.4728" stroke="#313A5A" stroke-width="2" stroke-linecap="round" stroke-linejoin="round"/>
<path d="M14.1696 18.582C12.8306 18.582 11.3551 19.1237 10.0085 19.8224C7.84403 20.9459 6.76178 21.5081 6.22878 21.1495C5.69578 20.792 5.79653 19.6816 5.99911 17.4619L6.04461 16.957" stroke="#313A5A" stroke-width="2" stroke-linecap="round"/>
</svg>
