<svg width="15" height="12" viewBox="0 0 15 12" fill="none" xmlns="http://www.w3.org/2000/svg">
<path d="M12.4785 0.37483C12.7339 0.131754 13.0736 -0.00262835 13.4261 3.89603e-05C13.7787 0.00270627 14.1164 0.142215 14.368 0.389127C14.6196 0.636039 14.7654 0.971041 14.7748 1.32345C14.7841 1.67585 14.6561 2.01809 14.4179 2.27796L7.18603 11.3223C7.06168 11.4563 6.91159 11.5638 6.74475 11.6384C6.5779 11.713 6.39773 11.7532 6.21499 11.7566C6.03225 11.7599 5.85071 11.7264 5.68122 11.6581C5.51172 11.5897 5.35776 11.4878 5.22853 11.3586L0.432659 6.5627C0.299102 6.43825 0.191979 6.28818 0.117681 6.12143C0.0433831 5.95468 0.00343198 5.77468 0.000211555 5.59215C-0.00300887 5.40963 0.0305675 5.22833 0.0989368 5.05906C0.167306 4.88979 0.269068 4.73603 0.398152 4.60695C0.527236 4.47786 0.680997 4.3761 0.850263 4.30773C1.01953 4.23936 1.20083 4.20579 1.38336 4.20901C1.56588 4.21223 1.74589 4.25218 1.91263 4.32648C2.07938 4.40077 2.22946 4.5079 2.35391 4.64146L6.14928 8.43502L12.4441 0.414706C12.4554 0.400751 12.4675 0.387438 12.4803 0.37483H12.4785Z" fill="currentColor"/>
</svg>
