<svg width="22" height="22" viewBox="0 0 22 22" fill="none" xmlns="http://www.w3.org/2000/svg">
<path d="M10.8333 0C4.85983 0 0 4.85983 0 10.8333C0 16.8068 4.85983 21.6667 10.8333 21.6667C16.8068 21.6667 21.6667 16.8068 21.6667 10.8333C21.6667 4.85983 16.8068 0 10.8333 0ZM10.8333 19.5C6.05475 19.5 2.16667 15.6119 2.16667 10.8333C2.16667 6.05475 6.05475 2.16667 10.8333 2.16667C15.6119 2.16667 19.5 6.05475 19.5 10.8333C19.5 15.6119 15.6119 19.5 10.8333 19.5Z" fill="#313A5A"/>
<path d="M11.9167 5.41675H9.75V11.9167H16.25V9.75008H11.9167V5.41675Z" fill="#313A5A"/>
</svg>
