<svg width="26" height="26" viewBox="0 0 26 26" fill="none" xmlns="http://www.w3.org/2000/svg">
<path d="M13 0C5.82098 0 0 5.82098 0 13C0 20.179 5.82098 26 13 26C20.179 26 26 20.179 26 13C26 5.82098 20.179 0 13 0ZM13 23.7946C7.03973 23.7946 2.20536 18.9603 2.20536 13C2.20536 7.03973 7.03973 2.20536 13 2.20536C18.9603 2.20536 23.7946 7.03973 23.7946 13C23.7946 18.9603 18.9603 23.7946 13 23.7946ZM18.7571 6.72924C18.6435 6.68483 18.5222 6.66326 18.4002 6.66575C18.2782 6.66824 18.1579 6.69474 18.0462 6.74375L10.1824 10.1853L6.74375 18.0491C6.63929 18.2871 6.63929 18.5569 6.74375 18.7949C6.84241 19.0212 7.02522 19.1982 7.25737 19.2882C7.36763 19.3317 7.4808 19.352 7.59687 19.352C7.72455 19.352 7.84933 19.3259 7.9683 19.2737L15.8321 15.8321L19.2708 7.9683C19.3209 7.85354 19.3474 7.72982 19.3486 7.60458C19.3498 7.47933 19.3257 7.35513 19.2777 7.23943C19.2298 7.12372 19.1589 7.01889 19.0695 6.93122C18.98 6.84356 18.8738 6.77486 18.7571 6.72924V6.72924ZM14.8804 13.65L15.6406 14.4103L14.4103 15.6406L13.65 14.8804L9.16964 16.842L11.1283 12.3616L10.3884 11.6187L11.6187 10.3884L12.3587 11.1283L16.842 9.16964L14.8804 13.65ZM11.6187 10.3884L10.3884 11.6187L11.1283 12.3616L13.65 14.8804L14.4103 15.6406L15.6406 14.4103L14.8804 13.65L12.3616 11.1283L11.6187 10.3884Z" fill="currentColor"/>
</svg>
