<svg width="51" height="51" viewBox="0 0 51 51" fill="none" xmlns="http://www.w3.org/2000/svg">
<g clip-path="url(#clip0_250_26)">
<path d="M12.728 38.1838C19.7574 45.2132 31.1544 45.2132 38.1838 38.1838C45.2132 31.1543 45.2132 19.7574 38.1838 12.7279C31.1544 5.69848 19.7574 5.69848 12.728 12.7279C5.69851 19.7574 5.69851 31.1543 12.728 38.1838Z" fill="#F4900C"/>
<path d="M15.2028 35.7089C20.8654 41.3715 30.0463 41.3715 35.7089 35.7089C41.3715 30.0463 41.3715 20.8654 35.7089 15.2028C30.0463 9.54018 20.8654 9.54018 15.2028 15.2028C9.54022 20.8654 9.54022 30.0463 15.2028 35.7089Z" fill="#FFD983"/>
<path d="M16.2635 34.6482C21.3403 39.7251 29.5714 39.7251 34.6483 34.6482C39.7251 29.5714 39.7251 21.3403 34.6483 16.2635C29.5714 11.1866 21.3403 11.1866 16.2635 16.2635C11.1867 21.3403 11.1867 29.5714 16.2635 34.6482Z" fill="#F5F8FA"/>
<path d="M32.5269 18.3848L29.1519 23.925L35.4558 25.4559L29.1519 26.9867L32.5269 32.5269L26.9868 29.1519L25.4559 35.4558L23.925 29.1519L18.3848 32.5269L21.7598 26.9867L15.456 25.4559L21.7598 23.925L18.3848 18.3848L23.925 21.7598L25.4559 15.456L26.9868 21.7598L32.5269 18.3848Z" fill="#CCD6DD"/>
<path d="M23.0482 26.9344L25.4495 36.9456L27.8529 26.9351L23.0482 26.9344Z" fill="#292F33"/>
<path d="M27.853 23.9879L25.4509 13.976L23.0475 23.9879L27.853 23.9879Z" fill="#DD2E44"/>
<path d="M23.29 27.6217C24.483 28.8148 26.4174 28.8148 27.6104 27.6217C28.8035 26.4287 28.8035 24.4943 27.6104 23.3013C26.4174 22.1082 24.483 22.1082 23.29 23.3013C22.0969 24.4943 22.0969 26.4287 23.29 27.6217Z" fill="#8899A6"/>
<path d="M24.2849 26.6268C24.9285 27.2704 25.9719 27.2704 26.6155 26.6268C27.2591 25.9832 27.2591 24.9398 26.6155 24.2962C25.9719 23.6526 24.9285 23.6526 24.2849 24.2962C23.6413 24.9398 23.6413 25.9832 24.2849 26.6268Z" fill="#F5F8FA"/>
</g>
<defs>
<clipPath id="clip0_250_26">
<rect width="36" height="36" fill="white" transform="translate(25.4559) rotate(45)"/>
</clipPath>
</defs>
</svg>
