<svg width="16" height="18" viewBox="0 0 16 18" fill="none" xmlns="http://www.w3.org/2000/svg">
<path d="M2 3.1275V12.75C1.99985 13.7021 2.36185 14.6186 3.01256 15.3136C3.66327 16.0086 4.55397 16.43 5.504 16.4925L5.75 16.5H12.371C12.2159 16.9386 11.9287 17.3184 11.5488 17.587C11.169 17.8557 10.7152 17.9999 10.25 18H5C3.80653 18 2.66193 17.5259 1.81802 16.682C0.974106 15.8381 0.5 14.6935 0.5 13.5V5.25C0.499756 4.78451 0.643892 4.3304 0.912542 3.95026C1.18119 3.57012 1.56113 3.28266 2 3.1275ZM13.25 0C13.8467 0 14.419 0.237053 14.841 0.65901C15.2629 1.08097 15.5 1.65326 15.5 2.25V12.75C15.5 13.3467 15.2629 13.919 14.841 14.341C14.419 14.7629 13.8467 15 13.25 15H5.75C5.15326 15 4.58097 14.7629 4.15901 14.341C3.73705 13.919 3.5 13.3467 3.5 12.75V2.25C3.5 1.65326 3.73705 1.08097 4.15901 0.65901C4.58097 0.237053 5.15326 0 5.75 0H13.25Z" fill="#313A5A"/>
</svg>
