<svg width="20" height="20" viewBox="0 0 20 20" fill="none" xmlns="http://www.w3.org/2000/svg">
<path d="M6 13H8V10H11.5V12.5L15 9L11.5 5.5V8H7C6.71667 8 6.47933 8.09567 6.288 8.287C6.096 8.479 6 8.71667 6 9V13ZM10 20C9.75 20 9.504 19.95 9.262 19.85C9.02067 19.75 8.8 19.6 8.6 19.4L0.6 11.4C0.4 11.2 0.25 10.9793 0.15 10.738C0.0500001 10.496 0 10.25 0 10C0 9.75 0.0500001 9.504 0.15 9.262C0.25 9.02067 0.4 8.8 0.6 8.6L8.6 0.6C8.8 0.4 9.02067 0.25 9.262 0.15C9.504 0.0500001 9.75 0 10 0C10.25 0 10.496 0.0500001 10.738 0.15C10.9793 0.25 11.2 0.4 11.4 0.6L19.4 8.6C19.6 8.8 19.75 9.02067 19.85 9.262C19.95 9.504 20 9.75 20 10C20 10.25 19.95 10.496 19.85 10.738C19.75 10.9793 19.6 11.2 19.4 11.4L11.4 19.4C11.2 19.6 10.9793 19.75 10.738 19.85C10.496 19.95 10.25 20 10 20V20Z" fill="currentColor"/>
</svg>
