<svg width="26" height="26" viewBox="0 0 26 26" fill="none" xmlns="http://www.w3.org/2000/svg">
<path d="M25.057 0.627575L18.4055 1.45375C18.1735 1.48187 18.0785 1.76312 18.2403 1.92836L20.1633 3.8514L14.7668 9.24789C14.7145 9.30075 14.6851 9.37213 14.6851 9.44652C14.6851 9.52091 14.7145 9.59229 14.7668 9.64515L16.3524 11.2307C16.4613 11.3397 16.6406 11.3397 16.7496 11.2307L22.1496 5.8307L24.0727 7.75375C24.1098 7.79083 24.1566 7.81671 24.2077 7.82841C24.2588 7.84012 24.3122 7.83718 24.3618 7.81994C24.4113 7.80269 24.455 7.77183 24.4878 7.7309C24.5206 7.68997 24.5412 7.64062 24.5473 7.58851L25.3699 0.940465C25.3758 0.89801 25.3717 0.854782 25.358 0.814167C25.3443 0.773551 25.3215 0.736648 25.2912 0.706347C25.2609 0.676045 25.224 0.653166 25.1833 0.6395C25.1427 0.625835 25.0995 0.621753 25.057 0.627575ZM9.64455 14.7674C9.59169 14.7151 9.52031 14.6857 9.44592 14.6857C9.37153 14.6857 9.30014 14.7151 9.24728 14.7674L3.8508 20.1674L1.92775 18.2444C1.89065 18.2073 1.84385 18.1814 1.79271 18.1697C1.74158 18.158 1.68818 18.1609 1.63864 18.1782C1.5891 18.1954 1.54542 18.2263 1.51261 18.2672C1.4798 18.3082 1.45919 18.3575 1.45314 18.4096L0.626971 25.0577C0.605877 25.2405 0.757049 25.3916 0.939861 25.3705L7.59142 24.5444C7.82346 24.5162 7.91838 24.235 7.75666 24.0698L5.83361 22.1467L11.2336 16.7467C11.3426 16.6377 11.3426 16.4584 11.2336 16.3494L9.64455 14.7674Z" fill="currentColor"/>
</svg>
