<svg width="19" height="19" viewBox="0 0 19 19" fill="none" xmlns="http://www.w3.org/2000/svg">
<path d="M4.72942 14.0802L7.05933 11.7503C6.47276 11.1329 6.15058 10.3108 6.16148 9.45924C6.17238 8.60769 6.51551 7.79408 7.11769 7.1919C7.71988 6.58971 8.53348 6.24659 9.38503 6.23569C10.2366 6.22478 11.0587 6.54696 11.6761 7.13353L14.0459 4.76336C12.7433 3.88943 11.228 3.45204 9.50002 3.45117C5.9338 3.45117 3.27306 5.3085 1.51779 9.02314C1.44724 9.17254 1.41064 9.33571 1.41064 9.50093C1.41064 9.66615 1.44724 9.82931 1.51779 9.97871C2.37464 11.7836 3.44519 13.1508 4.72942 14.0802V14.0802ZM17.4822 9.02129C16.8299 7.64713 16.0537 6.52643 15.1536 5.65918L12.4777 8.33606C12.7018 8.92494 12.7509 9.56607 12.619 10.1822C12.4872 10.7983 12.1799 11.3632 11.7344 11.8087C11.2888 12.2543 10.724 12.5615 10.1078 12.6933C9.49167 12.8252 8.85054 12.776 8.26168 12.5519L5.99318 14.8206C7.04461 15.3061 8.21356 15.5488 9.50002 15.5488C13.0662 15.5488 15.727 13.6915 17.4822 9.97686C17.5528 9.82746 17.5894 9.66429 17.5894 9.49907C17.5894 9.33385 17.5528 9.17068 17.4822 9.02129V9.02129Z" fill="black" fill-opacity="0.15"/>
<path d="M17.4822 9.02127C16.83 7.64711 16.0538 6.52641 15.1536 5.65916L14.2096 6.60323C14.9794 7.33892 15.65 8.30135 16.2298 9.49999C14.6861 12.6951 12.4947 14.2129 9.50002 14.2129C8.6011 14.2129 7.77313 14.0745 7.0161 13.7976L5.99318 14.8205C7.04461 15.3061 8.21356 15.5488 9.50002 15.5488C13.0662 15.5488 15.727 13.6915 17.4822 9.97684C17.5528 9.82745 17.5894 9.66428 17.5894 9.49906C17.5894 9.33384 17.5528 9.17067 17.4822 9.02127V9.02127ZM16.3027 3.0719L15.5117 2.27998C15.4979 2.26618 15.4816 2.25524 15.4636 2.24777C15.4455 2.2403 15.4262 2.23645 15.4067 2.23645C15.3872 2.23645 15.3679 2.2403 15.3499 2.24777C15.3319 2.25524 15.3155 2.26618 15.3017 2.27998L13.2724 4.30838C12.1535 3.7369 10.8961 3.45116 9.50002 3.45116C5.9338 3.45116 3.27306 5.30848 1.51779 9.02313C1.44724 9.17253 1.41064 9.33569 1.41064 9.50091C1.41064 9.66613 1.44724 9.8293 1.51779 9.9787C2.21903 11.4556 3.06327 12.6395 4.0505 13.5302L2.08705 15.4931C2.05923 15.521 2.0436 15.5587 2.0436 15.5981C2.0436 15.6374 2.05923 15.6752 2.08705 15.703L2.87915 16.4951C2.90698 16.5229 2.94472 16.5385 2.98407 16.5385C3.02342 16.5385 3.06117 16.5229 3.089 16.4951L16.3027 3.28194C16.3165 3.26815 16.3275 3.25178 16.3349 3.23376C16.3424 3.21574 16.3463 3.19643 16.3463 3.17692C16.3463 3.15741 16.3424 3.1381 16.3349 3.12008C16.3275 3.10206 16.3165 3.08568 16.3027 3.0719ZM2.77023 9.49999C4.31584 6.30487 6.50714 4.78709 9.50002 4.78709C10.512 4.78709 11.4321 4.96077 12.2669 5.31386L10.9625 6.61826C10.3448 6.28866 9.63743 6.16633 8.94487 6.26933C8.25231 6.37232 7.61119 6.69518 7.11609 7.19028C6.621 7.68538 6.29813 8.3265 6.19514 9.01906C6.09214 9.71162 6.21447 10.4189 6.54407 11.0367L4.99624 12.5845C4.13957 11.8284 3.40109 10.804 2.77023 9.49999ZM7.34767 9.49999C7.348 9.1728 7.4255 8.85031 7.57387 8.5587C7.72225 8.26709 7.93732 8.0146 8.20162 7.82173C8.46591 7.62886 8.77197 7.50105 9.09494 7.44869C9.41791 7.39633 9.74868 7.4209 10.0604 7.52039L7.4462 10.1346C7.38067 9.92941 7.34744 9.71534 7.34767 9.49999V9.49999Z" fill="black"/>
<path d="M9.42586 11.5781C9.36166 11.5781 9.29839 11.5751 9.23567 11.5694L8.25562 12.5494C8.84508 12.7752 9.48732 12.8253 10.1047 12.6939C10.7221 12.5624 11.2881 12.2549 11.7345 11.8085C12.1808 11.3622 12.4883 10.7961 12.6198 10.1788C12.7512 9.56141 12.7011 8.91918 12.4753 8.32971L11.4953 9.30977C11.501 9.37249 11.504 9.43576 11.504 9.49996C11.5041 9.7729 11.4505 10.0432 11.3461 10.2954C11.2417 10.5476 11.0886 10.7767 10.8956 10.9697C10.7026 11.1627 10.4735 11.3158 10.2213 11.4202C9.9691 11.5246 9.6988 11.5782 9.42586 11.5781V11.5781Z" fill="black"/>
</svg>
