<svg width="24" height="18" viewBox="0 0 24 18" fill="none" xmlns="http://www.w3.org/2000/svg">
<path d="M1.16797 3.58464C1.16797 3.01 1.39624 2.4589 1.80257 2.05257C2.2089 1.64624 2.76 1.41797 3.33464 1.41797H20.668C21.2426 1.41797 21.7937 1.64624 22.2 2.05257C22.6064 2.4589 22.8346 3.01 22.8346 3.58464V14.418C22.8346 14.9926 22.6064 15.5437 22.2 15.95C21.7937 16.3564 21.2426 16.5846 20.668 16.5846H3.33464C2.76 16.5846 2.2089 16.3564 1.80257 15.95C1.39624 15.5437 1.16797 14.9926 1.16797 14.418V3.58464Z" stroke="#313A5A" stroke-width="2" stroke-linecap="round" stroke-linejoin="round"/>
<path d="M12 12.25C13.7949 12.25 15.25 10.7949 15.25 9C15.25 7.20507 13.7949 5.75 12 5.75C10.2051 5.75 8.75 7.20507 8.75 9C8.75 10.7949 10.2051 12.25 12 12.25Z" stroke="#313A5A" stroke-width="2" stroke-linecap="round" stroke-linejoin="round"/>
<path d="M1.16797 5.7513C2.31724 5.7513 3.41944 5.29476 4.2321 4.4821C5.04476 3.66944 5.5013 2.56724 5.5013 1.41797M18.5013 16.5846C18.5013 15.4354 18.9578 14.3332 19.7705 13.5205C20.5832 12.7078 21.6854 12.2513 22.8346 12.2513" stroke="#313A5A" stroke-width="2" stroke-linecap="round" stroke-linejoin="round"/>
</svg>
