<svg width="18" height="18" viewBox="0 0 18 18" fill="none" xmlns="http://www.w3.org/2000/svg">
<path d="M8.30592 1.97475C8.54592 1.34175 9.45417 1.34175 9.69492 1.97475L11.2474 6.27525C11.3016 6.41534 11.397 6.53571 11.521 6.62047C11.6449 6.70523 11.7917 6.7504 11.9419 6.75H15.7572C16.4622 6.75 16.7697 7.6275 16.2154 8.05725L13.5004 10.5C13.3788 10.5935 13.2899 10.7231 13.2465 10.8702C13.2032 11.0174 13.2075 11.1745 13.2589 11.319L14.2504 15.5212C14.4919 16.1962 13.7104 16.776 13.1194 16.3605L9.43167 14.0205C9.30538 13.9317 9.15478 13.8841 9.00042 13.8841C8.84606 13.8841 8.69546 13.9317 8.56917 14.0205L4.88142 16.3605C4.29117 16.776 3.50892 16.1955 3.75042 15.5212L4.74192 11.319C4.79336 11.1745 4.79769 11.0174 4.75431 10.8702C4.71092 10.7231 4.62204 10.5935 4.50042 10.5L1.78542 8.05725C1.23042 7.6275 1.53942 6.75 2.24292 6.75H6.05817C6.20839 6.7505 6.35522 6.70538 6.47924 6.6206C6.60325 6.53583 6.6986 6.4154 6.75267 6.27525L8.30517 1.97475H8.30592Z" fill="currentColor" stroke="currentColor" stroke-width="1.8" stroke-linecap="round" stroke-linejoin="round"/>
</svg>
