<svg width="20" height="15" viewBox="0 0 20 15" fill="none" xmlns="http://www.w3.org/2000/svg">
<path d="M0.832031 2.04297C0.832031 1.6783 0.976897 1.32856 1.23476 1.0707C1.49262 0.812834 1.84236 0.667969 2.20703 0.667969H17.7904C18.155 0.667969 18.5048 0.812834 18.7626 1.0707C19.0205 1.32856 19.1654 1.6783 19.1654 2.04297C19.1654 2.40764 19.0205 2.75738 18.7626 3.01524C18.5048 3.2731 18.155 3.41797 17.7904 3.41797H2.20703C1.84236 3.41797 1.49262 3.2731 1.23476 3.01524C0.976897 2.75738 0.832031 2.40764 0.832031 2.04297ZM4.4987 7.54297C4.4987 7.1783 4.64356 6.82856 4.90143 6.5707C5.15929 6.31283 5.50903 6.16797 5.8737 6.16797H14.1237C14.4884 6.16797 14.8381 6.31283 15.096 6.5707C15.3538 6.82856 15.4987 7.1783 15.4987 7.54297C15.4987 7.90764 15.3538 8.25738 15.096 8.51524C14.8381 8.7731 14.4884 8.91797 14.1237 8.91797H5.8737C5.50903 8.91797 5.15929 8.7731 4.90143 8.51524C4.64356 8.25738 4.4987 7.90764 4.4987 7.54297ZM8.6237 11.668C8.25903 11.668 7.90929 11.8128 7.65143 12.0707C7.39356 12.3286 7.2487 12.6783 7.2487 13.043C7.2487 13.4076 7.39356 13.7574 7.65143 14.0152C7.90929 14.2731 8.25903 14.418 8.6237 14.418H11.3737C11.7384 14.418 12.0881 14.2731 12.346 14.0152C12.6038 13.7574 12.7487 13.4076 12.7487 13.043C12.7487 12.6783 12.6038 12.3286 12.346 12.0707C12.0881 11.8128 11.7384 11.668 11.3737 11.668H8.6237Z" fill="#313A5A"/>
</svg>
