<svg width="20" height="27" viewBox="0 0 20 27" fill="none" xmlns="http://www.w3.org/2000/svg">
<path d="M20 9.97351C20 14.5135 13.9062 22.5962 11.2344 25.9311C10.5937 26.7259 9.40625 26.7259 8.76562 25.9311C6.09375 22.5962 0 14.5135 0 9.97351C0 4.4673 4.47917 0 10 0C15.5208 0 20 4.4673 20 9.97351Z" fill="#F79824"/>
<circle cx="10" cy="10.1674" r="6.40167" fill="white"/>
<path d="M6.52722 6.35983V13.9749H7.16625V11.4365H13.5565V6.35983H6.52722ZM7.16625 6.99442H8.12479V7.9463H9.08333V6.99442H10.0419V7.9463H11.0004V6.99442H11.9589V7.9463H12.9175V8.89819H11.9589V9.85007H12.9175V10.802H11.9589V9.85007H11.0004V10.802H10.0419V9.85007H9.08333V10.802H8.12479V9.85007H7.16625V8.89819H8.12479V7.9463H7.16625V6.99442ZM8.12479 8.89819V9.85007H9.08333V8.89819H8.12479ZM9.08333 8.89819H10.0419V7.9463H9.08333V8.89819ZM10.0419 8.89819V9.85007H11.0004V8.89819H10.0419ZM11.0004 8.89819H11.9589V7.9463H11.0004V8.89819Z" fill="#F79824"/>
</svg>
