<svg width="22" height="22" viewBox="0 0 22 22" fill="none" xmlns="http://www.w3.org/2000/svg">
<path d="M21.4887 15.8387L18.4076 8.0564L20.0276 6.56347C20.7476 5.84347 21.2664 4.86936 21.584 3.64113C21.9017 2.4129 21.7217 1.45996 21.044 0.782318C20.3664 0.104674 19.4187 -0.0700314 18.2011 0.258202C16.9835 0.586436 15.9935 1.13173 15.2311 1.89408L13.7382 3.51407L6.59116 1.13173C5.89234 0.856435 5.24646 1.01526 4.65352 1.6082L2.20765 4.05407L9.25938 8.50111L6.68645 11.3917C4.33588 10.3964 2.46177 10.5976 1.06413 11.9952L0.397071 12.6623L9.19585 21.461L9.86291 20.794C11.3664 19.2905 11.5994 17.3846 10.5617 15.0764L13.5158 12.3764L18.5346 20.254L20.9805 17.8081C21.4887 17.2999 21.6582 16.6434 21.4887 15.8387ZM5.28881 3.70466L6.0194 2.97407L12.3088 5.07053L10.53 7.10347L5.28881 3.70466ZM3.25588 12.7893C3.61588 12.6411 4.3147 12.6623 5.35234 12.8529L4.39941 13.9328L3.25588 12.7893ZM5.76528 15.2987L16.6288 3.16466C17.0311 2.76231 17.5976 2.44996 18.3282 2.22761C19.0588 2.00525 19.5087 1.97878 19.6782 2.14819C19.8476 2.3176 19.8264 2.76231 19.6146 3.48231C19.4029 4.2023 19.1064 4.75289 18.7252 5.13406L6.5594 16.0928L5.76528 15.2987ZM9.0688 18.6022L7.86174 17.3952L9.00527 16.3787C9.34409 17.2681 9.36527 18.0093 9.0688 18.6022ZM18.8205 17.2364L14.8817 11.1376L16.7876 9.42228L19.4876 16.4422L18.757 17.1728L18.8205 17.2364Z" fill="#7B8CB5"/>
</svg>
