<svg width="50" height="50" viewBox="0 0 50 50" fill="none" xmlns="http://www.w3.org/2000/svg">
<rect width="50" height="50" rx="10" fill="#313A5A"/>
<path d="M22.4739 14.7459C23.2249 14.2549 24.1027 13.9934 25 13.9934C25.8973 13.9934 26.7751 14.2549 27.5262 14.7459L37.5088 21.2717C37.6363 21.3551 37.7411 21.4686 37.8141 21.6023C37.887 21.736 37.9257 21.8856 37.9268 22.0379C37.9279 22.1901 37.8914 22.3403 37.8204 22.475C37.7494 22.6097 37.6461 22.7248 37.5199 22.8099L27.5889 29.5315C26.825 30.0487 25.9235 30.3252 25.0009 30.3252C24.0783 30.3252 23.1769 30.0487 22.4129 29.5315L13.9205 23.7868V29.6165C13.9205 29.8614 13.8232 30.0962 13.65 30.2693C13.4769 30.4425 13.242 30.5398 12.9972 30.5398C12.7523 30.5398 12.5175 30.4425 12.3443 30.2693C12.1712 30.0962 12.0739 29.8614 12.0739 29.6165V22.2301C12.0739 22.2006 12.0739 22.1692 12.0776 22.1378C12.0613 21.9697 12.0912 21.8004 12.1641 21.6481C12.237 21.4958 12.3501 21.3663 12.4912 21.2736L22.4739 14.7477V14.7459ZM15.7671 31.4612V27.2639L21.377 31.0624C22.4465 31.7864 23.7085 32.1733 25 32.1733C26.2916 32.1733 27.5535 31.7864 28.623 31.0624L34.233 27.2639V31.4631C34.2331 31.6823 34.1552 31.8943 34.0132 32.0614L33.3097 31.4631L34.0132 32.0614L34.0114 32.0651L34.0077 32.0688L33.9966 32.0817L33.9597 32.1223C33.7693 32.33 33.5703 32.5296 33.3632 32.7206C32.957 33.0955 32.3624 33.5903 31.5942 34.0871C30.0615 35.0768 27.8105 36.0814 25.0019 36.0814C22.1895 36.0814 19.9404 35.0768 18.4058 34.0871C17.7776 33.6829 17.1852 33.2258 16.635 32.7206C16.4284 32.5296 16.2301 32.33 16.0404 32.1223L16.0034 32.0817L15.9923 32.0688L15.9887 32.0651L16.6904 31.4649C15.9868 32.0614 15.9887 32.0632 15.9887 32.0632C15.8461 31.8957 15.7675 31.683 15.7671 31.4631V31.4612Z" fill="white"/>
</svg>
