<svg width="21" height="24" viewBox="0 0 21 24" fill="none" xmlns="http://www.w3.org/2000/svg">
<path d="M2.33333 23.3343H18.6667C19.2855 23.3343 19.879 23.0884 20.3166 22.6508C20.7542 22.2133 21 21.6198 21 21.0009V10.5009C21.0009 10.3474 20.9715 10.1952 20.9134 10.053C20.8553 9.91089 20.7698 9.78161 20.6617 9.67259L11.3283 0.339258C11.1097 0.121965 10.8141 0 10.5058 0C10.1976 0 9.90192 0.121965 9.68334 0.339258L0.35 9.67259C0.239764 9.78064 0.152066 9.90949 0.0919862 10.0517C0.0319068 10.1939 0.000640792 10.3466 0 10.5009V21.0009C0 21.6198 0.245833 22.2133 0.683418 22.6508C1.121 23.0884 1.7145 23.3343 2.33333 23.3343ZM8.16667 21.0009V15.1676H12.8333V21.0009H8.16667ZM2.33333 10.9793L10.5 2.81259L18.6667 10.9793V21.0009H15.1667V15.1676C15.1667 14.5488 14.9208 13.9553 14.4833 13.5177C14.0457 13.0801 13.4522 12.8343 12.8333 12.8343H8.16667C7.54783 12.8343 6.95434 13.0801 6.51675 13.5177C6.07917 13.9553 5.83333 14.5488 5.83333 15.1676V21.0009H2.33333V10.9793Z" fill="currentColor"/>
</svg>
