<svg width="25" height="24" viewBox="0 0 25 24" fill="none" xmlns="http://www.w3.org/2000/svg">
<path d="M19.9375 22H20.9375V20H19.9375V19C19.9356 17.7852 19.6182 16.5917 19.0164 15.5364C18.4146 14.4811 17.5491 13.6002 16.5045 12.98C16.1495 12.77 15.9375 12.433 15.9375 12.079V11.921C15.9375 11.567 16.1495 11.23 16.5035 11.021C17.5483 10.4007 18.414 9.51964 19.016 8.46418C19.6179 7.40873 19.9355 6.21504 19.9375 5V4H20.9375V2H4.9375V4H5.9375V5C5.93953 6.21504 6.25707 7.40873 6.85903 8.46418C7.461 9.51964 8.32674 10.4007 9.3715 11.021C9.7255 11.23 9.9375 11.566 9.9375 11.921V12.079C9.9375 12.433 9.7255 12.77 9.3715 12.979C8.32674 13.5993 7.461 14.4804 6.85903 15.5358C6.25707 16.5913 5.93953 17.785 5.9375 19V20H4.9375V22H19.9375ZM17.9375 4V5C17.936 6.08225 17.5837 7.13485 16.9335 8H8.9415C8.29128 7.13485 7.93901 6.08225 7.9375 5V4H17.9375ZM10.3875 14.702C11.3585 14.128 11.9375 13.148 11.9375 12.079V12H13.9375V12.079C13.9375 13.147 14.5165 14.128 15.4885 14.702C16.387 15.2367 17.0945 16.0407 17.5105 17H8.3645C8.78063 16.0405 9.48846 15.2364 10.3875 14.702V14.702Z" fill="currentColor"/>
</svg>
