<svg width="21" height="21" viewBox="0 0 21 21" fill="none" xmlns="http://www.w3.org/2000/svg">
<path d="M10.4987 0.0820312C8.43848 0.0820312 6.42453 0.692958 4.71151 1.83756C2.9985 2.98215 1.66337 4.60901 0.874958 6.51241C0.0865446 8.41581 -0.11974 10.5103 0.282189 12.5309C0.684119 14.5515 1.67621 16.4076 3.13301 17.8644C4.5898 19.3212 6.44588 20.3133 8.46651 20.7152C10.4871 21.1171 12.5816 20.9109 14.485 20.1224C16.3884 19.334 18.0152 17.9989 19.1598 16.2859C20.3044 14.5729 20.9154 12.5589 20.9154 10.4987C20.9154 9.13076 20.6459 7.77622 20.1224 6.51241C19.599 5.2486 18.8317 4.10028 17.8644 3.133C16.8971 2.16573 15.7488 1.39844 14.485 0.874953C13.2212 0.351466 11.8666 0.0820313 10.4987 0.0820312ZM10.4987 18.832C8.85053 18.832 7.23936 18.3433 5.86895 17.4276C4.49854 16.5119 3.43044 15.2104 2.79971 13.6877C2.16898 12.165 2.00395 10.4895 2.32549 8.87294C2.64704 7.25644 3.44071 5.77158 4.60615 4.60614C5.77158 3.4407 7.25644 2.64703 8.87295 2.32549C10.4895 2.00394 12.165 2.16897 13.6877 2.7997C15.2105 3.43043 16.5119 4.49854 17.4276 5.86895C18.3433 7.23936 18.832 8.85052 18.832 10.4987C18.832 12.7088 17.9541 14.8285 16.3913 16.3913C14.8285 17.9541 12.7088 18.832 10.4987 18.832Z" fill="#7B8CB5"/>
<path d="M10.4987 7.3763C11.074 7.3763 11.5404 6.90993 11.5404 6.33464C11.5404 5.75934 11.074 5.29297 10.4987 5.29297C9.9234 5.29297 9.45703 5.75934 9.45703 6.33464C9.45703 6.90993 9.9234 7.3763 10.4987 7.3763Z" fill="#7B8CB5"/>
<path d="M10.4987 8.41797C10.2224 8.41797 9.95748 8.52772 9.76213 8.72307C9.56678 8.91842 9.45703 9.18337 9.45703 9.45964V14.668C9.45703 14.9442 9.56678 15.2092 9.76213 15.4045C9.95748 15.5999 10.2224 15.7096 10.4987 15.7096C10.775 15.7096 11.0399 15.5999 11.2353 15.4045C11.4306 15.2092 11.5404 14.9442 11.5404 14.668V9.45964C11.5404 9.18337 11.4306 8.91842 11.2353 8.72307C11.0399 8.52772 10.775 8.41797 10.4987 8.41797Z" fill="#7B8CB5"/>
</svg>
