<svg width="26" height="26" viewBox="0 0 26 26" fill="none" xmlns="http://www.w3.org/2000/svg">
<path d="M20.1625 20.975H5.8375V3.4H20.1625V20.975ZM21.125 1.475H4.875C4.61973 1.475 4.37491 1.57641 4.19441 1.75691C4.01391 1.93741 3.9125 2.18223 3.9125 2.4375V21.9375C3.9125 22.1928 4.01391 22.4376 4.19441 22.6181C4.37491 22.7986 4.61973 22.9 4.875 22.9H21.125C21.3803 22.9 21.6251 22.7986 21.8056 22.6181C21.9861 22.4376 22.0875 22.1928 22.0875 21.9375V2.4375C22.0875 2.18223 21.9861 1.93741 21.8056 1.75691C21.6251 1.57641 21.3803 1.475 21.125 1.475Z" fill="#313A5A" stroke="#313A5A" stroke-width="0.3"/>
<path d="M20.1625 20.975H5.8375V3.4H20.1625V20.975ZM21.125 1.475H4.875C4.61973 1.475 4.37491 1.57641 4.19441 1.75691C4.01391 1.93741 3.9125 2.18223 3.9125 2.4375V21.9375C3.9125 22.1928 4.01391 22.4376 4.19441 22.6181C4.37491 22.7986 4.61973 22.9 4.875 22.9H21.125C21.3803 22.9 21.6251 22.7986 21.8056 22.6181C21.9861 22.4376 22.0875 22.1928 22.0875 21.9375V2.4375C22.0875 2.18223 21.9861 1.93741 21.8056 1.75691C21.6251 1.57641 21.3803 1.475 21.125 1.475Z" fill="#313A5A" stroke="#313A5A" stroke-width="0.3"/>
<path d="M1.625 20.975H1.475V21.125V22.75V22.9H1.625H24.375H24.525V22.75V21.125V20.975H24.375H1.625ZM8.125 4.725H7.975V4.875V7.3125V7.4625H8.125H11.375H11.525V7.3125V4.875V4.725H11.375H8.125Z" fill="#313A5A" stroke="#313A5A" stroke-width="0.3"/>
<path d="M17.875 22.9H18.025V22.75V19.5C18.025 18.1673 17.4956 16.8892 16.5532 15.9468C15.6108 15.0044 14.3327 14.475 13 14.475C11.6673 14.475 10.3892 15.0044 9.44679 15.9468C8.50442 16.8892 7.975 18.1673 7.975 19.5V22.75V22.9H8.125H17.875ZM8.125 9.6H7.975V9.75V12.1875V12.3375H8.125H11.375H11.525V12.1875V9.75V9.6H11.375H8.125ZM14.625 4.725H14.475V4.875V7.3125V7.4625H14.625H17.875H18.025V7.3125V4.875V4.725H17.875H14.625ZM14.625 9.6H14.475V9.75V12.1875V12.3375H14.625H17.875H18.025V12.1875V9.75V9.6H17.875H14.625ZM16.1 19.5V20.975H9.9V19.5C9.9 18.6778 10.2266 17.8893 10.808 17.308C11.3893 16.7266 12.1778 16.4 13 16.4C13.8222 16.4 14.6107 16.7266 15.192 17.308C15.7734 17.8893 16.1 18.6778 16.1 19.5Z" fill="#313A5A" stroke="#313A5A" stroke-width="0.3"/>
</svg>
