<svg width="22" height="17" viewBox="0 0 22 17" fill="none" xmlns="http://www.w3.org/2000/svg">
    <path d="M15.0205 13.019L17.5013 10.5273L19.9821 13.019L21.5205 11.4807L19.0288 8.99985L21.5205 6.51901L19.9821 4.98068L17.5013 7.47235L15.0205 4.98068L13.4821 6.51901L15.963 8.99985L13.4821 11.4807L15.0205 13.019ZM11.0013 4.66651C11.0146 4.0938 10.9117 3.52434 10.6986 2.99256C10.4856 2.46079 10.1669 1.97775 9.7618 1.57268C9.35673 1.1676 8.87369 0.848901 8.34192 0.635854C7.81014 0.422806 7.24068 0.319839 6.66797 0.33318C6.09526 0.319839 5.52579 0.422806 4.99402 0.635854C4.46224 0.848901 3.97921 1.1676 3.57413 1.57268C3.16906 1.97775 2.85036 2.46079 2.63731 2.99256C2.42426 3.52434 2.32129 4.0938 2.33464 4.66651C2.32129 5.23922 2.42426 5.80869 2.63731 6.34046C2.85036 6.87224 3.16906 7.35527 3.57413 7.76035C3.97921 8.16543 4.46224 8.48413 4.99402 8.69717C5.52579 8.91022 6.09526 9.01319 6.66797 8.99985C7.24068 9.01319 7.81014 8.91022 8.34192 8.69717C8.87369 8.48413 9.35673 8.16543 9.7618 7.76035C10.1669 7.35527 10.4856 6.87224 10.6986 6.34046C10.9117 5.80869 11.0146 5.23922 11.0013 4.66651ZM4.5013 4.66651C4.48737 4.37829 4.53387 4.09034 4.63783 3.82116C4.74178 3.55198 4.90089 3.30752 5.10493 3.10348C5.30897 2.89944 5.55344 2.74033 5.82262 2.63637C6.0918 2.53242 6.37975 2.48591 6.66797 2.49985C6.95619 2.48591 7.24414 2.53242 7.51332 2.63637C7.7825 2.74033 8.02696 2.89944 8.231 3.10348C8.43505 3.30752 8.59415 3.55198 8.69811 3.82116C8.80206 4.09034 8.84857 4.37829 8.83464 4.66651C8.84857 4.95473 8.80206 5.24268 8.69811 5.51186C8.59415 5.78105 8.43505 6.02551 8.231 6.22955C8.02696 6.43359 7.7825 6.5927 7.51332 6.69665C7.24414 6.80061 6.95619 6.84711 6.66797 6.83318C6.37975 6.84711 6.0918 6.80061 5.82262 6.69665C5.55344 6.5927 5.30897 6.43359 5.10493 6.22955C4.90089 6.02551 4.74178 5.78105 4.63783 5.51186C4.53387 5.24268 4.48737 4.95473 4.5013 4.66651ZM2.33464 15.4998C2.33464 14.6379 2.67705 13.8112 3.28654 13.2017C3.89603 12.5923 4.72268 12.2498 5.58464 12.2498H7.7513C8.61326 12.2498 9.43991 12.5923 10.0494 13.2017C10.6589 13.8112 11.0013 14.6379 11.0013 15.4998V16.5832H13.168V15.4998C13.168 14.7885 13.0279 14.0842 12.7557 13.427C12.4834 12.7698 12.0844 12.1727 11.5815 11.6697C11.0785 11.1667 10.4814 10.7677 9.82417 10.4955C9.16699 10.2233 8.46263 10.0832 7.7513 10.0832H5.58464C4.14805 10.0832 2.7703 10.6539 1.75447 11.6697C0.738652 12.6855 0.167969 14.0633 0.167969 15.4998V16.5832H2.33464V15.4998Z" fill="#313A5A"/>
    </svg>
    