<svg width="18" height="17" viewBox="0 0 18 17" fill="none" xmlns="http://www.w3.org/2000/svg">
<path d="M15.75 5.25H10.8395L11.8221 2.30387C11.9989 1.77187 11.9096 1.18213 11.5815 0.727125C11.2534 0.272125 10.7214 0 10.1605 0H8.75C8.49013 0 8.24425 0.1155 8.07712 0.315L3.96463 5.25H1.75C0.784875 5.25 0 6.03487 0 7V14.875C0 15.8401 0.784875 16.625 1.75 16.625H13.3936C13.7497 16.6238 14.0969 16.5146 14.3896 16.3118C14.6822 16.109 14.9064 15.8222 15.0325 15.4892L17.4449 9.05712C17.4815 8.95888 17.5002 8.85485 17.5 8.75V7C17.5 6.03487 16.7151 5.25 15.75 5.25ZM1.75 7H3.5V14.875H1.75V7ZM15.75 8.59163L13.3936 14.875H5.25V6.44175L9.1595 1.75H10.1623L8.7955 5.84762C8.75113 5.97915 8.73876 6.11936 8.7594 6.25662C8.78004 6.39389 8.83311 6.52425 8.9142 6.63691C8.9953 6.74957 9.10208 6.84127 9.22569 6.90442C9.34931 6.96756 9.48619 7.00033 9.625 7H15.75V8.59163Z" fill="currentColor"/>
</svg>
