<svg width="20" height="13" viewBox="0 0 20 13" fill="none" xmlns="http://www.w3.org/2000/svg">
<path d="M1.29844 0.398438C1.05974 0.398438 0.830824 0.493259 0.662041 0.662041C0.493259 0.830824 0.398438 1.05974 0.398438 1.29844C0.398438 1.53713 0.493259 1.76605 0.662041 1.93483C0.830824 2.10362 1.05974 2.19844 1.29844 2.19844H18.6984C18.9371 2.19844 19.166 2.10362 19.3348 1.93483C19.5036 1.76605 19.5984 1.53713 19.5984 1.29844C19.5984 1.05974 19.5036 0.830824 19.3348 0.662041C19.166 0.493259 18.9371 0.398438 18.6984 0.398438H1.29844ZM1.29844 3.99844C1.05974 3.99844 0.830824 4.09326 0.662041 4.26204C0.493259 4.43082 0.398438 4.65974 0.398438 4.89844C0.398438 5.13713 0.493259 5.36605 0.662041 5.53483C0.830824 5.70362 1.05974 5.79844 1.29844 5.79844H18.6984C18.9371 5.79844 19.166 5.70362 19.3348 5.53483C19.5036 5.36605 19.5984 5.13713 19.5984 4.89844C19.5984 4.65974 19.5036 4.43082 19.3348 4.26204C19.166 4.09326 18.9371 3.99844 18.6984 3.99844H1.29844ZM0.398438 8.49844C0.398438 8.25974 0.493259 8.03082 0.662041 7.86204C0.830824 7.69326 1.05974 7.59844 1.29844 7.59844H18.6984C18.9371 7.59844 19.166 7.69326 19.3348 7.86204C19.5036 8.03082 19.5984 8.25974 19.5984 8.49844C19.5984 8.73713 19.5036 8.96605 19.3348 9.13483C19.166 9.30361 18.9371 9.39844 18.6984 9.39844H1.29844C1.05974 9.39844 0.830824 9.30361 0.662041 9.13483C0.493259 8.96605 0.398438 8.73713 0.398438 8.49844ZM1.29844 11.1984C1.05974 11.1984 0.830824 11.2933 0.662041 11.462C0.493259 11.6308 0.398438 11.8597 0.398438 12.0984C0.398438 12.3371 0.493259 12.566 0.662041 12.7348C0.830824 12.9036 1.05974 12.9984 1.29844 12.9984H12.6984C12.9371 12.9984 13.166 12.9036 13.3348 12.7348C13.5036 12.566 13.5984 12.3371 13.5984 12.0984C13.5984 11.8597 13.5036 11.6308 13.3348 11.462C13.166 11.2933 12.9371 11.1984 12.6984 11.1984H1.29844Z" fill="#313A5A"/>
</svg>
