<svg width="57" height="71" viewBox="0 0 57 71" fill="none" xmlns="http://www.w3.org/2000/svg">
<path d="M28.5013 0.0820312C18.7369 0.0820312 10.793 8.02599 10.793 17.7904V28.4154H7.2513C5.37269 28.4154 3.57101 29.1616 2.24263 30.49C0.914246 31.8184 0.167969 33.6201 0.167969 35.4987V63.832C0.167969 65.7106 0.914246 67.5123 2.24263 68.8407C3.57101 70.1691 5.37269 70.9154 7.2513 70.9154H49.7513C51.6299 70.9154 53.4316 70.1691 54.76 68.8407C56.0884 67.5123 56.8346 65.7106 56.8346 63.832V35.4987C56.8346 33.6201 56.0884 31.8184 54.76 30.49C53.4316 29.1616 51.6299 28.4154 49.7513 28.4154H46.2096V17.7904C46.2096 8.02599 38.2657 0.0820312 28.5013 0.0820312ZM17.8763 17.7904C17.8763 11.9324 22.6434 7.16536 28.5013 7.16536C34.3592 7.16536 39.1263 11.9324 39.1263 17.7904V28.4154H17.8763V17.7904ZM32.043 55.7677V63.832H24.9596V55.7677C23.7214 55.0586 22.7272 53.9909 22.108 52.7054C21.4888 51.4198 21.2738 49.9768 21.4912 48.5666C21.7087 47.1564 22.3484 45.8452 23.3261 44.806C24.3038 43.7667 25.5735 43.0481 26.9678 42.7449C28.0034 42.516 29.0772 42.5224 30.1101 42.7637C31.1429 43.005 32.1084 43.475 32.9354 44.1392C33.7624 44.8034 34.4297 45.6447 34.8882 46.6011C35.3468 47.5576 35.5847 48.6047 35.5846 49.6654C35.5826 50.904 35.2542 52.1203 34.6324 53.1916C34.0106 54.2629 33.1175 55.1514 32.043 55.7677Z" fill="#2176FF"/>
</svg>
