<svg width="18" height="22" viewBox="0 0 18 22" fill="none" xmlns="http://www.w3.org/2000/svg">
<path d="M8.66667 0C5.67992 0 3.25 2.42992 3.25 5.41667V7.58333H2.16667C0.97175 7.58333 0 8.55508 0 9.75V19.5C0 20.6949 0.97175 21.6667 2.16667 21.6667H15.1667C16.3616 21.6667 17.3333 20.6949 17.3333 19.5V9.75C17.3333 8.55508 16.3616 7.58333 15.1667 7.58333H14.0833V5.41667C14.0833 2.42992 11.6534 0 8.66667 0ZM5.41667 5.41667C5.41667 3.62483 6.87483 2.16667 8.66667 2.16667C10.4585 2.16667 11.9167 3.62483 11.9167 5.41667V7.58333H5.41667V5.41667ZM15.1688 19.5H9.75V17.0322C10.3946 16.6563 10.8333 15.9651 10.8333 15.1667C10.8333 13.9718 9.86158 13 8.66667 13C7.47175 13 6.5 13.9718 6.5 15.1667C6.5 15.964 6.93875 16.6563 7.58333 17.0322V19.5H2.16667V9.75H15.1667L15.1688 19.5V19.5Z" fill="#313A5A"/>
</svg>
