<svg width="22" height="18" viewBox="0 0 22 18" fill="none" xmlns="http://www.w3.org/2000/svg">
<path d="M19.5 0H2.16667C0.97175 0 0 0.97175 0 2.16667V15.1667C0 16.3616 0.97175 17.3333 2.16667 17.3333H19.5C20.6949 17.3333 21.6667 16.3616 21.6667 15.1667V2.16667C21.6667 0.97175 20.6949 0 19.5 0ZM19.5 2.16667V2.72025L10.8333 9.46183L2.16667 2.72133V2.16667H19.5ZM2.16667 15.1667V5.46433L10.1682 11.6881C10.3579 11.8371 10.5921 11.9181 10.8333 11.9181C11.0746 11.9181 11.3088 11.8371 11.4985 11.6881L19.5 5.46433L19.5022 15.1667H2.16667Z" fill="currentColor"/>
</svg>
