<svg width="20" height="20" viewBox="0 0 20 20" fill="none" xmlns="http://www.w3.org/2000/svg">
<path d="M6.368 2.78999L3.632 1.87699C3.33133 1.77684 3.01118 1.74958 2.69791 1.79745C2.38464 1.84532 2.08723 1.96694 1.83019 2.1523C1.57315 2.33766 1.36383 2.58145 1.21949 2.86357C1.07516 3.1457 0.999924 3.45808 1 3.77499V15.558C0.999899 15.9779 1.13198 16.3872 1.37752 16.7279C1.62305 17.0686 1.96959 17.3233 2.368 17.456L6.368 18.789C6.77825 18.9256 7.22175 18.9256 7.632 18.789L12.368 17.211C12.7783 17.0743 13.2217 17.0743 13.632 17.211L16.368 18.123C16.6687 18.2232 16.989 18.2504 17.3023 18.2025C17.6157 18.1546 17.9132 18.0329 18.1702 17.8474C18.4273 17.6619 18.6366 17.418 18.7808 17.1357C18.9251 16.8535 19.0002 16.541 19 16.224V4.44199C19.0002 4.02218 18.8682 3.61296 18.6229 3.27231C18.3775 2.93166 18.0312 2.67685 17.633 2.54399L13.633 1.21099C13.2224 1.07412 12.7786 1.07412 12.368 1.21099L7.631 2.78899C7.22074 2.92563 6.77725 2.92563 6.367 2.78899L6.368 2.78999Z" stroke="currentColor" stroke-width="2" stroke-linecap="round" stroke-linejoin="round"/>
<path d="M7 3V19M13 1V17" stroke="currentColor" stroke-width="2" stroke-linejoin="round"/>
</svg>
