<svg width="24" height="19" viewBox="0 0 24 19" fill="none" xmlns="http://www.w3.org/2000/svg">
<g clip-path="url(#clip0_1_26)">
<path d="M13.0408 9.48397L15.2882 12.0528L18.3103 13.9838L18.836 9.50018L18.3103 5.11766L15.2303 6.81407L13.0408 9.48397Z" fill="#00832D"/>
<path d="M0 13.5665V17.3873C0 18.2596 0.708133 18.9679 1.58069 18.9679H5.4014L6.19256 16.0811L5.4014 13.5665L2.78012 12.7754L9.00474e-05 13.5665H0Z" fill="#0066DA"/>
<path d="M5.4014 0L0 5.4014L2.7803 6.19067L5.4014 5.4014L6.17815 2.92105L5.4014 0Z" fill="#E94235"/>
<path d="M9.15527e-05 13.5683H5.4014V5.40131H9.15527e-05V13.5683Z" fill="#2684FC"/>
<path d="M21.7608 2.28702L18.3102 5.11775V13.9838L21.775 16.8255C22.2937 17.2318 23.0524 16.8616 23.0524 16.2022V2.89772C23.0524 2.2311 22.2756 1.86263 21.7607 2.28711" fill="#00AC47"/>
<path d="M13.0408 9.48397V13.5665H5.4014V18.9679H16.7297C17.6023 18.9679 18.3103 18.2596 18.3103 17.3873V13.9838L13.0408 9.48397Z" fill="#00AC47"/>
<path d="M16.7297 0H5.4014V5.4014H13.0408V9.48397L18.3104 5.11757V1.58078C18.3104 0.708223 17.6023 9.00474e-05 16.7297 9.00474e-05" fill="#FFBA00"/>
</g>
<defs>
<clipPath id="clip0_1_26">
<rect width="23.0521" height="19" fill="white"/>
</clipPath>
</defs>
</svg>
