<svg width="12" height="18" viewBox="0 0 12 18" fill="none" xmlns="http://www.w3.org/2000/svg">
<path d="M2.25 3.375C2.25 2.47989 2.60558 1.62145 3.23851 0.988515C3.87145 0.355579 4.72989 0 5.625 0C6.52011 0 7.37855 0.355579 8.01149 0.988515C8.64442 1.62145 9 2.47989 9 3.375V9C9 9.89511 8.64442 10.7536 8.01149 11.3865C7.37855 12.0194 6.52011 12.375 5.625 12.375C4.72989 12.375 3.87145 12.0194 3.23851 11.3865C2.60558 10.7536 2.25 9.89511 2.25 9V3.375Z" fill="currentColor"/>
<path d="M0.5625 7.3125C0.711684 7.3125 0.854758 7.37176 0.960247 7.47725C1.06574 7.58274 1.125 7.72582 1.125 7.875V9C1.125 10.1935 1.59911 11.3381 2.44302 12.182C3.28693 13.0259 4.43153 13.5 5.625 13.5C6.81847 13.5 7.96307 13.0259 8.80698 12.182C9.65089 11.3381 10.125 10.1935 10.125 9V7.875C10.125 7.72582 10.1843 7.58274 10.2898 7.47725C10.3952 7.37176 10.5383 7.3125 10.6875 7.3125C10.8367 7.3125 10.9798 7.37176 11.0852 7.47725C11.1907 7.58274 11.25 7.72582 11.25 7.875V9C11.25 10.3945 10.7321 11.7392 9.79664 12.7734C8.8612 13.8076 7.57498 14.4574 6.1875 14.5969V16.875H9.5625C9.71168 16.875 9.85476 16.9343 9.96025 17.0398C10.0657 17.1452 10.125 17.2883 10.125 17.4375C10.125 17.5867 10.0657 17.7298 9.96025 17.8352C9.85476 17.9407 9.71168 18 9.5625 18H1.6875C1.53832 18 1.39524 17.9407 1.28975 17.8352C1.18426 17.7298 1.125 17.5867 1.125 17.4375C1.125 17.2883 1.18426 17.1452 1.28975 17.0398C1.39524 16.9343 1.53832 16.875 1.6875 16.875H5.0625V14.5969C3.67502 14.4574 2.3888 13.8076 1.45336 12.7734C0.517932 11.7392 -1.75181e-05 10.3945 4.44382e-10 9V7.875C4.44382e-10 7.72582 0.0592633 7.58274 0.164753 7.47725C0.270242 7.37176 0.413316 7.3125 0.5625 7.3125Z" fill="currentColor"/>
</svg>
