<svg width="20" height="20" viewBox="0 0 20 20" fill="none" xmlns="http://www.w3.org/2000/svg">
<path d="M12.3333 8.33333H8M8 10.5V6.16667C8 5.59203 8.22827 5.04093 8.6346 4.6346C9.04093 4.22827 9.59203 4 10.1667 4C10.7413 4 11.2924 4.22827 11.6987 4.6346C12.1051 5.04093 12.3333 5.59203 12.3333 6.16667V10.5H8Z" stroke="#313A5A" stroke-width="2" stroke-linecap="round" stroke-linejoin="round"/>
<path d="M1 18.3333V4.25C1 3.38805 1.34241 2.5614 1.9519 1.9519C2.5614 1.34241 3.38805 1 4.25 1H15.0833C15.9453 1 16.7719 1.34241 17.3814 1.9519C17.9909 2.5614 18.3333 3.38805 18.3333 4.25V10.75C18.3333 11.612 17.9909 12.4386 17.3814 13.0481C16.7719 13.6576 15.9453 14 15.0833 14H5.33333L1 18.3333Z" stroke="#313A5A" stroke-width="2" stroke-linecap="round" stroke-linejoin="round"/>
</svg>
