<svg width="22" height="22" viewBox="0 0 22 22" fill="none" xmlns="http://www.w3.org/2000/svg">
<path d="M1.25107 12.0849H2.3344V19.6682C2.3344 20.8631 3.30615 21.8349 4.50107 21.8349H17.5011C18.696 21.8349 19.6677 20.8631 19.6677 19.6682V12.0849H20.7511C20.9653 12.0848 21.1747 12.0212 21.3528 11.9022C21.5309 11.7832 21.6697 11.614 21.7517 11.4161C21.8337 11.2181 21.8551 11.0004 21.8134 10.7902C21.7716 10.5801 21.6684 10.3871 21.517 10.2356L11.767 0.485603C11.6665 0.384912 11.5471 0.305029 11.4157 0.250526C11.2842 0.196023 11.1433 0.167969 11.0011 0.167969C10.8588 0.167969 10.7179 0.196023 10.5865 0.250526C10.4551 0.305029 10.3357 0.384912 10.2352 0.485603L0.485155 10.2356C0.333694 10.3871 0.230554 10.5801 0.188773 10.7902C0.146991 11.0004 0.168444 11.2181 0.25042 11.4161C0.332396 11.614 0.471214 11.7832 0.649324 11.9022C0.827435 12.0212 1.03684 12.0848 1.25107 12.0849ZM11.0011 2.78335L17.5011 9.28335V14.2515L17.5022 19.6682H4.50107V9.28444L11.0011 2.78335Z" fill="#7B8CB5"/>
<path d="M11.0013 16.4167C13.3911 16.4167 15.3346 14.4732 15.3346 12.0833C15.3346 9.6935 13.3911 7.75 11.0013 7.75C8.61147 7.75 6.66797 9.6935 6.66797 12.0833C6.66797 14.4732 8.61147 16.4167 11.0013 16.4167ZM11.0013 9.91667C12.1962 9.91667 13.168 10.8884 13.168 12.0833C13.168 13.2782 12.1962 14.25 11.0013 14.25C9.80639 14.25 8.83464 13.2782 8.83464 12.0833C8.83464 10.8884 9.80639 9.91667 11.0013 9.91667Z" fill="#7B8CB5"/>
</svg>
