<svg width="8" height="12" viewBox="0 0 8 12" fill="none" xmlns="http://www.w3.org/2000/svg">
<path d="M2.08374 0.790009C2.22406 0.790545 2.36282 0.819424 2.4917 0.874914C2.62058 0.930404 2.73692 1.01136 2.83374 1.11293L6.85458 5.27959C7.04544 5.47431 7.15234 5.7361 7.15234 6.00876C7.15234 6.28142 7.04544 6.54321 6.85458 6.73793L2.68791 10.9046C2.59079 11.0017 2.47548 11.0788 2.34858 11.1313C2.22169 11.1839 2.08568 11.2109 1.94833 11.2109C1.81097 11.2109 1.67496 11.1839 1.54807 11.1313C1.42117 11.0788 1.30587 11.0017 1.20874 10.9046C1.11162 10.8075 1.03458 10.6922 0.982013 10.5653C0.92945 10.4384 0.902396 10.3024 0.902396 10.165C0.902396 10.0277 0.92945 9.89165 0.982013 9.76475C1.03458 9.63785 1.11162 9.52255 1.20874 9.42542L4.64624 5.99834L1.33374 2.56084C1.13973 2.36567 1.03083 2.10166 1.03083 1.82647C1.03083 1.55127 1.13973 1.28726 1.33374 1.09209C1.43231 0.994296 1.54944 0.917191 1.67824 0.865313C1.80704 0.813436 1.94491 0.787833 2.08374 0.790009Z" fill="#7B8CB5"/>
</svg>
