<svg width="14" height="18" viewBox="0 0 14 18" fill="none" xmlns="http://www.w3.org/2000/svg">
<path d="M7 2C8.44725 2 9.625 3.17775 9.625 4.625H11.375C11.375 2.21263 9.41237 0.25 7 0.25C4.58763 0.25 2.625 2.21263 2.625 4.625V6.375H1.75C0.784875 6.375 0 7.15987 0 8.125V16C0 16.9651 0.784875 17.75 1.75 17.75H12.25C13.2151 17.75 14 16.9651 14 16V8.125C14 7.15987 13.2151 6.375 12.25 6.375H4.375V4.625C4.375 3.17775 5.55275 2 7 2ZM12.2518 16H7.875V14.0068C8.39563 13.7031 8.75 13.1449 8.75 12.5C8.75 11.5349 7.96513 10.75 7 10.75C6.03487 10.75 5.25 11.5349 5.25 12.5C5.25 13.144 5.60437 13.7031 6.125 14.0068V16H1.75V8.125H12.25L12.2518 16Z" fill="#5A617B"/>
</svg>
