<svg width="21" height="20" viewBox="0 0 21 20" fill="none" xmlns="http://www.w3.org/2000/svg">
<path d="M5.29037 7.3737C5.98103 7.3737 6.64341 7.09933 7.13179 6.61095C7.62016 6.12258 7.89453 5.4602 7.89453 4.76953C7.89453 4.07886 7.62016 3.41648 7.13179 2.92811C6.64341 2.43973 5.98103 2.16536 5.29037 2.16536C4.5997 2.16536 3.93732 2.43973 3.44894 2.92811C2.96056 3.41648 2.6862 4.07886 2.6862 4.76953C2.6862 5.4602 2.96056 6.12258 3.44894 6.61095C3.93732 7.09933 4.5997 7.3737 5.29037 7.3737ZM5.29037 9.45703C4.67479 9.45703 4.06525 9.33579 3.49654 9.10022C2.92782 8.86465 2.41108 8.51937 1.9758 8.08409C1.54053 7.64882 1.19525 7.13207 0.959679 6.56336C0.72411 5.99465 0.602865 5.3851 0.602865 4.76953C0.602865 4.15396 0.72411 3.54442 0.959679 2.9757C1.19525 2.40699 1.54053 1.89024 1.9758 1.45497C2.41108 1.01969 2.92782 0.674415 3.49654 0.438846C4.06525 0.203277 4.67479 0.0820312 5.29037 0.0820313C6.53357 0.0820313 7.72585 0.575891 8.60493 1.45497C9.484 2.33404 9.97787 3.52633 9.97787 4.76953C9.97787 6.01273 9.484 7.20502 8.60493 8.08409C7.72585 8.96317 6.53357 9.45703 5.29037 9.45703ZM16.2279 11.5404C16.7804 11.5404 17.3103 11.3209 17.701 10.9302C18.0917 10.5395 18.3112 10.0096 18.3112 9.45703C18.3112 8.9045 18.0917 8.37459 17.701 7.98389C17.3103 7.59319 16.7804 7.3737 16.2279 7.3737C15.6753 7.3737 15.1454 7.59319 14.7547 7.98389C14.364 8.37459 14.1445 8.9045 14.1445 9.45703C14.1445 10.0096 14.364 10.5395 14.7547 10.9302C15.1454 11.3209 15.6753 11.5404 16.2279 11.5404ZM16.2279 13.6237C15.1228 13.6237 14.063 13.1847 13.2816 12.4033C12.5002 11.6219 12.0612 10.5621 12.0612 9.45703C12.0612 8.35196 12.5002 7.29215 13.2816 6.51075C14.063 5.72935 15.1228 5.29036 16.2279 5.29036C17.3329 5.29036 18.3927 5.72935 19.1741 6.51075C19.9555 7.29215 20.3945 8.35196 20.3945 9.45703C20.3945 10.5621 19.9555 11.6219 19.1741 12.4033C18.3927 13.1847 17.3329 13.6237 16.2279 13.6237ZM18.832 19.8737V19.3529C18.832 18.6622 18.5577 17.9998 18.0693 17.5114C17.5809 17.0231 16.9185 16.7487 16.2279 16.7487C15.5372 16.7487 14.8748 17.0231 14.3864 17.5114C13.8981 17.9998 13.6237 18.6622 13.6237 19.3529V19.8737H11.5404V19.3529C11.5404 18.7373 11.6616 18.1277 11.8972 17.559C12.1327 16.9903 12.478 16.4736 12.9133 16.0383C13.3486 15.603 13.8653 15.2577 14.434 15.0222C15.0028 14.7866 15.6123 14.6654 16.2279 14.6654C16.8434 14.6654 17.453 14.7866 18.0217 15.0222C18.5904 15.2577 19.1072 15.603 19.5424 16.0383C19.9777 16.4736 20.323 16.9903 20.5586 17.559C20.7941 18.1277 20.9154 18.7373 20.9154 19.3529V19.8737H18.832ZM8.41537 19.8737V15.707C8.41537 14.8782 8.08613 14.0834 7.50007 13.4973C6.91402 12.9113 6.11917 12.582 5.29037 12.582C4.46156 12.582 3.66671 12.9113 3.08066 13.4973C2.49461 14.0834 2.16536 14.8782 2.16536 15.707V19.8737H0.0820312V15.707C0.0820313 14.3257 0.630765 13.0009 1.60752 12.0242C2.58427 11.0474 3.90903 10.4987 5.29037 10.4987C6.6717 10.4987 7.99646 11.0474 8.97321 12.0242C9.94997 13.0009 10.4987 14.3257 10.4987 15.707V19.8737H8.41537Z" fill="#313A5A"/>
</svg>
