<svg width="14" height="18" viewBox="0 0 14 18" fill="none" xmlns="http://www.w3.org/2000/svg">
<path d="M13.1644 4.375C13.4951 4.04425 13.6771 3.605 13.6771 3.13775C13.6771 2.6705 13.4951 2.23125 13.1644 1.9005L11.7766 0.51275C11.4459 0.182 11.0066 0 10.5394 0C10.0721 0 9.63287 0.182 9.303 0.511875L0 9.786V13.6491H3.86137L13.1644 4.375ZM10.5394 1.75L11.928 3.13687L10.5367 4.52287L9.149 3.136L10.5394 1.75ZM1.75 11.8991V10.5122L7.91 4.3715L9.29775 5.75925L3.13862 11.8991H1.75ZM0 15.3991H14V17.1491H0V15.3991Z" fill="currentColor"/>
</svg>
