<svg width="21" height="21" viewBox="0 0 21 21" fill="none" xmlns="http://www.w3.org/2000/svg">
<path d="M16.1843 11.3189C16.0838 11.2182 15.9644 11.1384 15.833 11.0839C15.7016 11.0294 15.5607 11.0013 15.4184 11.0013C15.2761 11.0013 15.1353 11.0294 15.0038 11.0839C14.8724 11.1384 14.753 11.2182 14.6525 11.3189L12.9257 13.0458C12.1251 12.8074 10.6312 12.2658 9.68433 11.3189C8.7375 10.3721 8.19583 8.87819 7.9575 8.0776L9.68433 6.35077C9.78502 6.25025 9.8649 6.13086 9.91941 5.99944C9.97391 5.86801 10.002 5.72713 10.002 5.58485C10.002 5.44258 9.97391 5.30169 9.91941 5.17027C9.8649 5.03884 9.78502 4.91946 9.68433 4.81894L5.351 0.485603C5.25047 0.384912 5.13109 0.305029 4.99966 0.250526C4.86824 0.196023 4.72736 0.167969 4.58508 0.167969C4.4428 0.167969 4.30192 0.196023 4.17049 0.250526C4.03907 0.305029 3.91968 0.384912 3.81916 0.485603L0.881162 3.4236C0.469495 3.83527 0.237662 4.40077 0.246328 4.97819C0.271245 6.52085 0.679662 11.879 4.9025 16.1019C9.12533 20.3247 14.4835 20.732 16.0272 20.758H16.0576C16.6296 20.758 17.1702 20.5327 17.5797 20.1232L20.5177 17.1852C20.6184 17.0847 20.6982 16.9653 20.7527 16.8339C20.8072 16.7024 20.8353 16.5615 20.8353 16.4193C20.8353 16.277 20.8072 16.1361 20.7527 16.0047C20.6982 15.8733 20.6184 15.7539 20.5177 15.6534L16.1843 11.3189ZM16.0467 18.5903C14.6947 18.5675 10.0689 18.2046 6.43433 14.5689C2.78783 10.9224 2.43466 6.28035 2.413 4.95544L4.58508 2.78335L7.38658 5.58485L5.98583 6.9856C5.8585 7.11284 5.76487 7.2698 5.71343 7.4423C5.66198 7.6148 5.65433 7.7974 5.69116 7.9736C5.71716 8.09819 6.35308 11.0524 8.15141 12.8508C9.94975 14.6491 12.904 15.285 13.0286 15.311C13.2047 15.3489 13.3875 15.3419 13.5601 15.2905C13.7328 15.2392 13.8897 15.1453 14.0166 15.0174L15.4184 13.6167L18.2199 16.4182L16.0467 18.5903Z" fill="#313A5A"/>
</svg>
