<svg width="12" height="16" viewBox="0 0 12 16" fill="none" xmlns="http://www.w3.org/2000/svg">
<path d="M6.188 10H5V6.5H6.188C6.41781 6.5 6.64538 6.54526 6.8577 6.63321C7.07002 6.72116 7.26293 6.85006 7.42544 7.01256C7.58794 7.17507 7.71684 7.36798 7.80479 7.5803C7.89274 7.79262 7.938 8.02019 7.938 8.25C7.938 8.47981 7.89274 8.70738 7.80479 8.9197C7.71684 9.13202 7.58794 9.32493 7.42544 9.48744C7.26293 9.64994 7.07002 9.77884 6.8577 9.86679C6.64538 9.95473 6.41781 10 6.188 10Z" fill="#313A5A"/>
<path d="M2 0H7.293C7.5582 5.66374e-05 7.81251 0.105451 8 0.293L11.707 4C11.8945 4.18749 11.9999 4.4418 12 4.707V14C12 14.5304 11.7893 15.0391 11.4142 15.4142C11.0391 15.7893 10.5304 16 10 16H2C1.46957 16 0.960859 15.7893 0.585786 15.4142C0.210714 15.0391 0 14.5304 0 14V2C0 1.46957 0.210714 0.960859 0.585786 0.585786C0.960859 0.210714 1.46957 0 2 0V0ZM7.5 1.5V3.5C7.5 3.76522 7.60536 4.01957 7.79289 4.20711C7.98043 4.39464 8.23478 4.5 8.5 4.5H10.5L7.5 1.5ZM5 5.5C4.73478 5.5 4.48043 5.60536 4.29289 5.79289C4.10536 5.98043 4 6.23478 4 6.5V13C4 13.1326 4.05268 13.2598 4.14645 13.3536C4.24021 13.4473 4.36739 13.5 4.5 13.5C4.63261 13.5 4.75979 13.4473 4.85355 13.3536C4.94732 13.2598 5 13.1326 5 13V11H6.188C6.91735 11 7.61682 10.7103 8.13254 10.1945C8.64827 9.67882 8.938 8.97935 8.938 8.25C8.938 7.52065 8.64827 6.82118 8.13254 6.30546C7.61682 5.78973 6.91735 5.5 6.188 5.5H5Z" fill="#313A5A"/>
</svg>
