<svg width="8" height="12" viewBox="0 0 8 12" fill="none" xmlns="http://www.w3.org/2000/svg">
<path d="M5.91626 11.21C5.77594 11.2095 5.63718 11.1806 5.5083 11.1251C5.37942 11.0696 5.26308 10.9886 5.16626 10.8871L1.14542 6.72041C0.954563 6.52569 0.847656 6.2639 0.847656 5.99124C0.847656 5.71858 0.954563 5.45679 1.14542 5.26207L5.31209 1.09541C5.40921 0.998285 5.52452 0.921242 5.65142 0.868679C5.77831 0.816117 5.91432 0.789063 6.05167 0.789062C6.18903 0.789062 6.32504 0.816117 6.45193 0.868679C6.57883 0.921242 6.69413 0.998285 6.79126 1.09541C6.88838 1.19253 6.96542 1.30783 7.01799 1.43473C7.07055 1.56163 7.0976 1.69764 7.0976 1.83499C7.0976 1.97234 7.07055 2.10835 7.01799 2.23525C6.96542 2.36215 6.88838 2.47745 6.79126 2.57457L3.35376 6.00166L6.66626 9.43916C6.86027 9.63433 6.96917 9.89834 6.96917 10.1735C6.96917 10.4487 6.86027 10.7127 6.66626 10.9079C6.56769 11.0057 6.45056 11.0828 6.32176 11.1347C6.19297 11.1866 6.05509 11.2122 5.91626 11.21Z" fill="#7B8CB5"/>
</svg>
