<svg width="72" height="76" viewBox="0 0 72 76" fill="none" xmlns="http://www.w3.org/2000/svg">
<path d="M36 0C32.0444 0 28.1776 1.17298 24.8886 3.37061C21.5996 5.56823 19.0362 8.69181 17.5224 12.3463C16.0087 16.0009 15.6126 20.0222 16.3843 23.9018C17.156 27.7814 19.0608 31.3451 21.8579 34.1421C24.6549 36.9392 28.2186 38.844 32.0982 39.6157C35.9778 40.3874 39.9991 39.9913 43.6537 38.4776C47.3082 36.9638 50.4318 34.4004 52.6294 31.1114C54.827 27.8224 56 23.9556 56 20C56 14.6957 53.8929 9.60859 50.1421 5.85786C46.3914 2.10714 41.3043 0 36 0V0ZM36 32C33.6266 32 31.3065 31.2962 29.3332 29.9776C27.3598 28.6591 25.8217 26.7849 24.9134 24.5922C24.0052 22.3995 23.7676 19.9867 24.2306 17.6589C24.6936 15.3311 25.8365 13.1929 27.5147 11.5147C29.1929 9.83649 31.3311 8.6936 33.6589 8.23058C35.9867 7.76755 38.3995 8.00519 40.5922 8.91345C42.7849 9.8217 44.6591 11.3598 45.9776 13.3332C47.2962 15.3065 48 17.6266 48 20C48 23.1826 46.7357 26.2348 44.4853 28.4853C42.2348 30.7357 39.1826 32 36 32V32ZM72 76V72C72 64.5739 69.05 57.452 63.799 52.201C58.548 46.95 51.4261 44 44 44H28C20.5739 44 13.452 46.95 8.20101 52.201C2.94999 57.452 0 64.5739 0 72V76H8V72C8 66.6957 10.1071 61.6086 13.8579 57.8579C17.6086 54.1071 22.6957 52 28 52H44C49.3043 52 54.3914 54.1071 58.1421 57.8579C61.8929 61.6086 64 66.6957 64 72V76H72Z" fill="#7B8CB5"/>
</svg>
