<svg width="9" height="13" viewBox="0 0 9 13" fill="none" xmlns="http://www.w3.org/2000/svg">
<path fill-rule="evenodd" clip-rule="evenodd" d="M0.754644 3.79913C0.452894 3.79913 0.208519 3.54731 0.255269 3.24981C0.547457 1.4425 1.92446 0.125 4.31402 0.125C6.70464 0.125 8.31646 1.57 8.31646 3.54094C8.31646 4.96894 7.60989 5.97194 6.41458 6.69975C5.24583 7.39994 4.91221 7.88762 4.91221 8.83537V8.86725C4.91221 9.00815 4.85624 9.14327 4.75661 9.2429C4.65698 9.34253 4.52185 9.3985 4.38096 9.3985H3.56283C3.42285 9.39851 3.28852 9.34327 3.18905 9.24478C3.08957 9.1463 3.03298 9.01254 3.03158 8.87256L3.02839 8.66006C2.98271 7.36275 3.53521 6.534 4.77621 5.77856C5.87058 5.10706 6.26052 4.57263 6.26052 3.62381C6.26052 2.58363 5.45514 1.81969 4.21414 1.81969C3.14208 1.81969 2.39727 2.38175 2.15502 3.30931C2.08489 3.57919 1.85964 3.79913 1.58127 3.79913H0.755707H0.754644ZM3.96446 12.875C4.62533 12.875 5.12789 12.3714 5.12789 11.7169C5.12789 11.0603 4.62533 10.5566 3.96446 10.5566C3.32058 10.5566 2.80952 11.0603 2.80952 11.7158C2.80952 12.3714 3.32058 12.875 3.96446 12.875Z" fill="#313A5A"/>
</svg>
