<svg width="18" height="19" viewBox="0 0 18 19" fill="none" xmlns="http://www.w3.org/2000/svg">
<path d="M14.9167 14.4727C16.2115 12.9367 17.0011 10.9383 17.0011 8.75C17.0011 3.92578 13.1875 0 8.53529 0C3.88306 0 0 3.92578 0 8.75C0 13.5742 3.81362 17.5 8.46585 17.5C10.1526 17.5 11.722 16.9859 13.046 16.1102L14.8192 18.3008C15.0593 18.5974 15.4044 18.7508 15.7523 18.7508C16.5625 18.7508 16.9658 18.0375 16.9658 17.5004C16.9658 17.2182 16.8735 16.9344 16.6843 16.7008L14.9167 14.4727ZM8.5 15C5.15237 15 2.42857 12.1961 2.42857 8.75C2.42857 5.30391 5.15237 2.53516 8.5 2.53516C11.8476 2.53516 14.5714 5.33906 14.5714 8.75C14.5714 10.1645 14.0952 11.4562 13.3222 12.5047L10.6478 9.19922C10.4073 8.90246 10.0619 8.74883 9.71391 8.74883C8.90679 8.74883 8.50114 9.46055 8.50114 9.99961C8.50114 10.2818 8.59346 10.5656 8.78266 10.7992L11.497 14.152C10.6098 14.6758 9.59286 15 8.5 15Z" fill="#313A5A"/>
</svg>
