<svg width="50" height="50" viewBox="0 0 50 50" fill="none" xmlns="http://www.w3.org/2000/svg">
<circle cx="25" cy="25" r="25" fill="#F7F8FA"/>
<path d="M28.3364 14.3958C28.3879 14.2852 28.4607 14.1859 28.5506 14.1035C28.6405 14.0211 28.7457 13.9572 28.8603 13.9154C28.9749 13.8737 29.0966 13.8549 29.2185 13.8603C29.3403 13.8656 29.4599 13.8948 29.5704 13.9463C32.0293 15.0913 36.4242 18.7062 36.1419 25.5034C36.1278 25.7465 36.0186 25.9744 35.838 26.1379C35.6574 26.3013 35.4198 26.3873 35.1764 26.3772C34.933 26.367 34.7033 26.2617 34.5369 26.0838C34.3705 25.906 34.2806 25.6698 34.2867 25.4263C34.5281 19.5967 30.7887 16.5612 28.7858 15.6289C28.6752 15.5774 28.5759 15.5046 28.4935 15.4147C28.4111 15.3248 28.3472 15.2196 28.3055 15.105C28.2637 14.9904 28.245 14.8687 28.2503 14.7468C28.2556 14.625 28.2848 14.5054 28.3364 14.3948V14.3958ZM22.8513 16.3189C22.785 16.1418 22.6662 15.9891 22.5108 15.8814C22.3554 15.7736 22.1708 15.7159 21.9817 15.7159C21.7926 15.7159 21.608 15.7736 21.4526 15.8814C21.2972 15.9891 21.1784 16.1418 21.1121 16.3189L14.8442 33.0331C14.7578 33.2638 14.7665 33.5193 14.8685 33.7435C14.9704 33.9677 15.1573 34.1422 15.3879 34.2287C15.6185 34.3151 15.8741 34.3064 16.0983 34.2044C16.3225 34.1025 16.497 33.9156 16.5834 33.685L18.4462 28.7162H25.5163L27.3799 33.6841C27.4681 33.9121 27.6427 34.0962 27.8658 34.1963C28.0889 34.2965 28.3425 34.3045 28.5715 34.2188C28.8005 34.1331 28.9865 33.9605 29.089 33.7385C29.1916 33.5165 29.2024 33.2631 29.1192 33.0331L22.8513 16.3189V16.3189ZM24.8199 26.8591H19.1426L21.9812 19.2912L24.8199 26.8591ZM29.2538 17.747C29.0533 17.6038 28.8042 17.5461 28.5612 17.5866C28.3182 17.6271 28.1012 17.7624 27.958 17.9629C27.8148 18.1634 27.7571 18.4125 27.7976 18.6555C27.838 18.8985 27.9734 19.1155 28.1739 19.2587C28.9112 19.7852 29.4962 20.3684 29.9038 21.1038C30.3087 21.8364 30.5714 22.7789 30.5714 24.0743C30.5714 24.3206 30.6693 24.5567 30.8434 24.7309C31.0176 24.905 31.2537 25.0029 31.5 25.0029C31.7463 25.0029 31.9825 24.905 32.1566 24.7309C32.3308 24.5567 32.4286 24.3206 32.4286 24.0743C32.4286 22.5171 32.1101 21.2542 31.5279 20.2049C30.9494 19.1584 30.1415 18.3812 29.2529 17.747H29.2538Z" fill="#313A5A"/>
</svg>
