<svg width="24" height="23" viewBox="0 0 24 23" fill="none" xmlns="http://www.w3.org/2000/svg">
<path d="M22.1667 0H14C13.1362 0.0029258 12.3044 0.327326 11.6667 0.91C11.0289 0.327326 10.1972 0.0029258 9.33333 0H1.16667C0.857247 0 0.560501 0.122916 0.341709 0.341709C0.122916 0.560501 0 0.857247 0 1.16667V18.6667C0 18.9761 0.122916 19.2728 0.341709 19.4916C0.560501 19.7104 0.857247 19.8333 1.16667 19.8333H7.88433C8.498 19.8333 9.1 20.083 9.534 20.517L10.8418 21.8248C10.8523 21.8353 10.8663 21.8388 10.8768 21.8493C10.9772 21.9415 11.0892 22.0232 11.2198 22.078H11.2222C11.5068 22.1958 11.8265 22.1958 12.1112 22.078H12.1135C12.2442 22.0232 12.3562 21.9415 12.4565 21.8493C12.467 21.8388 12.481 21.8353 12.4915 21.8248L13.7993 20.517C14.2379 20.081 14.8306 19.8354 15.449 19.8333H22.1667C22.4761 19.8333 22.7728 19.7104 22.9916 19.4916C23.2104 19.2728 23.3333 18.9761 23.3333 18.6667V1.16667C23.3333 0.857247 23.2104 0.560501 22.9916 0.341709C22.7728 0.122916 22.4761 0 22.1667 0V0ZM7.88433 17.5H2.33333V2.33333H9.33333C9.97733 2.33333 10.5 2.85717 10.5 3.5V18.3038C9.72703 17.7826 8.81662 17.5028 7.88433 17.5V17.5ZM21 17.5H15.449C14.5168 17.5 13.601 17.787 12.8333 18.3038V3.5C12.8333 2.85717 13.356 2.33333 14 2.33333H21V17.5Z" fill="currentColor"/>
</svg>
