<svg width="18" height="22" viewBox="0 0 18 22" fill="none" xmlns="http://www.w3.org/2000/svg">
<path d="M5.7513 16.4167V14.25M9.0013 16.4167V12.0833M12.2513 16.4167V9.91667M14.418 20.75H3.58464C3.01 20.75 2.4589 20.5217 2.05257 20.1154C1.64624 19.7091 1.41797 19.158 1.41797 18.5833V3.41667C1.41797 2.84203 1.64624 2.29093 2.05257 1.8846C2.4589 1.47827 3.01 1.25 3.58464 1.25H9.63614C9.92343 1.25006 10.1989 1.36424 10.4021 1.56742L16.2672 7.43258C16.4704 7.6357 16.5846 7.91121 16.5846 8.1985V18.5833C16.5846 19.158 16.3564 19.7091 15.95 20.1154C15.5437 20.5217 14.9926 20.75 14.418 20.75Z" stroke="#313A5A" stroke-width="2" stroke-linecap="round" stroke-linejoin="round"/>
</svg>
