<svg width="19" height="19" viewBox="0 0 19 19" fill="none" xmlns="http://www.w3.org/2000/svg">
<path d="M18.4844 6.34766C18.5961 6.34766 18.6875 6.25625 18.6875 6.14453V4.62109C18.6875 4.50937 18.5961 4.41797 18.4844 4.41797H14.3203V0.203125C14.3203 0.0914062 14.2289 0 14.1172 0H12.4922C12.3805 0 12.2891 0.0914062 12.2891 0.203125V4.41797H6.5V0.203125C6.5 0.0914062 6.40859 0 6.29688 0H4.67188C4.56016 0 4.46875 0.0914062 4.46875 0.203125V4.41797H0.203125C0.0914062 4.41797 0 4.50937 0 4.62109V6.14453C0 6.25625 0.0914062 6.34766 0.203125 6.34766H4.46875V12.3398H0.203125C0.0914062 12.3398 0 12.4312 0 12.543V14.0664C0 14.1781 0.0914062 14.2695 0.203125 14.2695H4.46875V18.4844C4.46875 18.5961 4.56016 18.6875 4.67188 18.6875H6.29688C6.40859 18.6875 6.5 18.5961 6.5 18.4844V14.2695H12.2891V18.4844C12.2891 18.5961 12.3805 18.6875 12.4922 18.6875H14.1172C14.2289 18.6875 14.3203 18.5961 14.3203 18.4844V14.2695H18.4844C18.5961 14.2695 18.6875 14.1781 18.6875 14.0664V12.543C18.6875 12.4312 18.5961 12.3398 18.4844 12.3398H14.3203V6.34766H18.4844ZM12.2891 12.3398H6.5V6.34766H12.2891V12.3398Z" fill="#313A5A"/>
</svg>
