<svg width="23" height="23" viewBox="0 0 23 23" fill="none" xmlns="http://www.w3.org/2000/svg">
<path d="M1 2.95C1 2.43283 1.20545 1.93684 1.57114 1.57114C1.93684 1.20545 2.43283 1 2.95 1H4.25C4.76717 1 5.26316 1.20545 5.62886 1.57114C5.99455 1.93684 6.2 2.43283 6.2 2.95V4.25C6.2 4.76717 5.99455 5.26316 5.62886 5.62886C5.26316 5.99455 4.76717 6.2 4.25 6.2H2.95C2.43283 6.2 1.93684 5.99455 1.57114 5.62886C1.20545 5.26316 1 4.76717 1 4.25V2.95ZM2.95 2.3C2.77761 2.3 2.61228 2.36848 2.49038 2.49038C2.36848 2.61228 2.3 2.77761 2.3 2.95V4.25C2.3 4.42239 2.36848 4.58772 2.49038 4.70962C2.61228 4.83152 2.77761 4.9 2.95 4.9H4.25C4.42239 4.9 4.58772 4.83152 4.70962 4.70962C4.83152 4.58772 4.9 4.42239 4.9 4.25V2.95C4.9 2.77761 4.83152 2.61228 4.70962 2.49038C4.58772 2.36848 4.42239 2.3 4.25 2.3H2.95ZM1 10.75C1 10.2328 1.20545 9.73684 1.57114 9.37114C1.93684 9.00545 2.43283 8.8 2.95 8.8H4.25C4.76717 8.8 5.26316 9.00545 5.62886 9.37114C5.99455 9.73684 6.2 10.2328 6.2 10.75V12.05C6.2 12.5672 5.99455 13.0632 5.62886 13.4289C5.26316 13.7946 4.76717 14 4.25 14H2.95C2.43283 14 1.93684 13.7946 1.57114 13.4289C1.20545 13.0632 1 12.5672 1 12.05V10.75ZM2.95 10.1C2.77761 10.1 2.61228 10.1685 2.49038 10.2904C2.36848 10.4123 2.3 10.5776 2.3 10.75V12.05C2.3 12.2224 2.36848 12.3877 2.49038 12.5096C2.61228 12.6315 2.77761 12.7 2.95 12.7H4.25C4.42239 12.7 4.58772 12.6315 4.70962 12.5096C4.83152 12.3877 4.9 12.2224 4.9 12.05V10.75C4.9 10.5776 4.83152 10.4123 4.70962 10.2904C4.58772 10.1685 4.42239 10.1 4.25 10.1H2.95ZM1 18.55C1 18.0328 1.20545 17.5368 1.57114 17.1711C1.93684 16.8054 2.43283 16.6 2.95 16.6H4.25C4.76717 16.6 5.26316 16.8054 5.62886 17.1711C5.99455 17.5368 6.2 18.0328 6.2 18.55V19.85C6.2 20.3672 5.99455 20.8632 5.62886 21.2289C5.26316 21.5946 4.76717 21.8 4.25 21.8H2.95C2.43283 21.8 1.93684 21.5946 1.57114 21.2289C1.20545 20.8632 1 20.3672 1 19.85V18.55ZM2.95 17.9C2.77761 17.9 2.61228 17.9685 2.49038 18.0904C2.36848 18.2123 2.3 18.3776 2.3 18.55V19.85C2.3 20.0224 2.36848 20.1877 2.49038 20.3096C2.61228 20.4315 2.77761 20.5 2.95 20.5H4.25C4.42239 20.5 4.58772 20.4315 4.70962 20.3096C4.83152 20.1877 4.9 20.0224 4.9 19.85V18.55C4.9 18.3776 4.83152 18.2123 4.70962 18.0904C4.58772 17.9685 4.42239 17.9 4.25 17.9H2.95ZM8.8 4.25C8.8 4.07761 8.86848 3.91228 8.99038 3.79038C9.11228 3.66848 9.27761 3.6 9.45 3.6H21.15C21.3224 3.6 21.4877 3.66848 21.6096 3.79038C21.7315 3.91228 21.8 4.07761 21.8 4.25C21.8 4.42239 21.7315 4.58772 21.6096 4.70962C21.4877 4.83152 21.3224 4.9 21.15 4.9H9.45C9.27761 4.9 9.11228 4.83152 8.99038 4.70962C8.86848 4.58772 8.8 4.42239 8.8 4.25ZM8.8 12.05C8.8 11.8776 8.86848 11.7123 8.99038 11.5904C9.11228 11.4685 9.27761 11.4 9.45 11.4H21.15C21.3224 11.4 21.4877 11.4685 21.6096 11.5904C21.7315 11.7123 21.8 11.8776 21.8 12.05C21.8 12.2224 21.7315 12.3877 21.6096 12.5096C21.4877 12.6315 21.3224 12.7 21.15 12.7H9.45C9.27761 12.7 9.11228 12.6315 8.99038 12.5096C8.86848 12.3877 8.8 12.2224 8.8 12.05ZM8.8 19.85C8.8 19.6776 8.86848 19.5123 8.99038 19.3904C9.11228 19.2685 9.27761 19.2 9.45 19.2H21.15C21.3224 19.2 21.4877 19.2685 21.6096 19.3904C21.7315 19.5123 21.8 19.6776 21.8 19.85C21.8 20.0224 21.7315 20.1877 21.6096 20.3096C21.4877 20.4315 21.3224 20.5 21.15 20.5H9.45C9.27761 20.5 9.11228 20.4315 8.99038 20.3096C8.86848 20.1877 8.8 20.0224 8.8 19.85Z" fill="#313A5A" stroke="#313A5A" stroke-width="0.5"/>
</svg>
