<svg width="18" height="18" viewBox="0 0 18 18" fill="none" xmlns="http://www.w3.org/2000/svg">
<path d="M17.0634 11.4814C17.1916 11.3532 17.2789 11.1899 17.3142 11.0121C17.3496 10.8343 17.3314 10.65 17.2621 10.4826C17.1927 10.3151 17.0752 10.1719 16.9245 10.0712C16.7738 9.97049 16.5966 9.91671 16.4154 9.91667H9.9987V11.75H14.2025L10.2673 15.6852C10.1391 15.8134 10.0518 15.9768 10.0165 16.1546C9.98114 16.3323 9.99929 16.5166 10.0687 16.6841C10.138 16.8516 10.2555 16.9947 10.4062 17.0955C10.5569 17.1962 10.7341 17.25 10.9154 17.25H17.332V15.4167H13.1282L17.0634 11.4814ZM5.41536 1.6575H3.58203V12.6575H0.832031L4.4987 16.3242L8.16536 12.6575H5.41536V1.6575ZM14.582 0.75H12.7487C12.3664 0.75 12.0245 0.987417 11.8898 1.34492L9.36895 8.06683H11.3279L12.0089 6.25H15.3209L16.0019 8.06592H17.9609L15.44 1.344C15.3744 1.16948 15.2571 1.01912 15.1038 0.91299C14.9505 0.806859 14.7685 0.75 14.582 0.75ZM12.6964 4.41667L13.3839 2.58333H13.9459L14.6334 4.41667H12.6964Z" fill="#313A5A"/>
</svg>
