<svg width="21" height="21" viewBox="0 0 21 21" fill="none" xmlns="http://www.w3.org/2000/svg">
<path d="M21 10.5C21 4.69875 16.3013 0 10.5 0C4.69875 0 0 4.69875 0 10.5C0 16.3013 4.69875 21 10.5 21C16.3013 21 21 16.3013 21 10.5ZM6.86438 2.06062L8.82 6.95625C8.00625 7.33688 7.33688 8.00625 6.95625 8.82L2.06062 6.86438C2.99345 4.71099 4.71099 2.99345 6.86438 2.06062V2.06062ZM18.9394 6.86438L14.0437 8.82C13.6631 8.00625 12.9937 7.33688 12.18 6.95625L14.1356 2.06062C16.2881 2.9925 18.0075 4.71188 18.9394 6.86438ZM10.5 13.125C9.05625 13.125 7.875 11.9438 7.875 10.5C7.875 9.05625 9.05625 7.875 10.5 7.875C11.9438 7.875 13.125 9.05625 13.125 10.5C13.125 11.9438 11.9438 13.125 10.5 13.125ZM2.06062 14.1356L6.95625 12.18C7.33688 12.9937 8.00625 13.6631 8.82 14.0437L6.86438 18.9394C4.71099 18.0066 2.99345 16.289 2.06062 14.1356V14.1356ZM14.1356 18.9394L12.18 14.0437C12.9937 13.6631 13.6631 12.9937 14.0437 12.18L18.9394 14.1356C18.0066 16.289 16.289 18.0066 14.1356 18.9394Z" fill="currentColor"/>
</svg>
