<svg width="16" height="16" viewBox="0 0 16 16" fill="none" xmlns="http://www.w3.org/2000/svg">
<path d="M16 8C16 3.58 12.42 0 8 0C3.58 0 0 3.58 0 8C0 12.42 3.58 16 8 16C12.42 16 16 12.42 16 8ZM5.23 1.57L6.72 5.3C6.1 5.59 5.59 6.1 5.3 6.72L1.57 5.23C2.28072 3.58933 3.58933 2.28072 5.23 1.57V1.57ZM14.43 5.23L10.7 6.72C10.41 6.1 9.9 5.59 9.28 5.3L10.77 1.57C12.41 2.28 13.72 3.59 14.43 5.23ZM8 10C6.9 10 6 9.1 6 8C6 6.9 6.9 6 8 6C9.1 6 10 6.9 10 8C10 9.1 9.1 10 8 10ZM1.57 10.77L5.3 9.28C5.59 9.9 6.1 10.41 6.72 10.7L5.23 14.43C3.58933 13.7193 2.28072 12.4107 1.57 10.77V10.77ZM10.77 14.43L9.28 10.7C9.9 10.41 10.41 9.9 10.7 9.28L14.43 10.77C13.7193 12.4107 12.4107 13.7193 10.77 14.43Z" fill="black"/>
</svg>
