<svg width="27" height="27" viewBox="0 0 27 27" fill="none" xmlns="http://www.w3.org/2000/svg">
<path d="M12.587 2.7385C12.9603 1.75383 14.3732 1.75383 14.7477 2.7385L17.1627 9.42817C17.2469 9.64608 17.3953 9.83333 17.5881 9.96518C17.781 10.097 18.0094 10.1673 18.243 10.1667H24.1778C25.2745 10.1667 25.7528 11.5317 24.8907 12.2002L20.6673 16C20.4781 16.1454 20.3399 16.3471 20.2724 16.5759C20.2049 16.8048 20.2116 17.0492 20.2917 17.274L21.834 23.8108C22.2097 24.8608 20.994 25.7627 20.0747 25.1163L14.3382 21.4763C14.1417 21.3383 13.9074 21.2642 13.6673 21.2642C13.4272 21.2642 13.1929 21.3383 12.9965 21.4763L7.25999 25.1163C6.34183 25.7627 5.12499 24.8597 5.50066 23.8108L7.04299 17.274C7.123 17.0492 7.12974 16.8048 7.06225 16.5759C6.99476 16.3471 6.85651 16.1454 6.66733 16L2.44399 12.2002C1.58066 11.5317 2.06133 10.1667 3.15566 10.1667H9.09049C9.32417 10.1674 9.55257 10.0973 9.74548 9.96538C9.93839 9.83351 10.0867 9.64618 10.1708 9.42817L12.5858 2.7385H12.587Z" stroke="currentColor" stroke-width="2.2" stroke-linecap="round" stroke-linejoin="round"/>
</svg>
