<svg width="17" height="16" viewBox="0 0 17 16" fill="none" xmlns="http://www.w3.org/2000/svg">
<path d="M16.1234 7.08398L1.2484 0.0839761C1.09863 0.0131152 0.931801 -0.0137201 0.767363 0.00659766C0.602925 0.0269155 0.447649 0.0935497 0.31963 0.198734C0.191611 0.303918 0.0961235 0.443321 0.0442953 0.600694C-0.00753286 0.758067 -0.0135668 0.92693 0.026897 1.0876L1.72352 7.87585L0.026897 14.6641C-0.0139454 14.8248 -0.00817534 14.9939 0.0435322 15.1514C0.0952398 15.309 0.190747 15.4486 0.318881 15.5539C0.447016 15.6592 0.60248 15.7258 0.767088 15.7459C0.931696 15.7661 1.09864 15.739 1.2484 15.6677L16.1234 8.66773C16.2737 8.59706 16.4008 8.48508 16.4899 8.34485C16.5789 8.20462 16.6262 8.04195 16.6262 7.87585C16.6262 7.70975 16.5789 7.54708 16.4899 7.40685C16.4008 7.26663 16.2737 7.15464 16.1234 7.08398V7.08398ZM2.17152 13.2982L2.90565 10.3609L7.87565 7.87585L2.90565 5.39085L2.17152 2.45348L13.6953 7.87585L2.17152 13.2982Z" fill="white"/>
</svg>
