<svg width="14" height="17" viewBox="0 0 14 17" fill="none" xmlns="http://www.w3.org/2000/svg">
<path d="M4.99979 4.00057C4.73457 4.00057 4.48022 4.10593 4.29268 4.29346C4.10514 4.481 3.99979 4.73535 3.99979 5.00057C3.99979 5.26579 4.10514 5.52014 4.29268 5.70768C4.48022 5.89521 4.73457 6.00057 4.99979 6.00057H10.5858L9.29279 7.29357C9.11063 7.48217 9.00983 7.73477 9.01211 7.99697C9.01439 8.25917 9.11956 8.50998 9.30497 8.69539C9.49038 8.8808 9.74119 8.98596 10.0034 8.98824C10.2656 8.99052 10.5182 8.88973 10.7068 8.70757L13.7068 5.70757C13.8943 5.52004 13.9996 5.26573 13.9996 5.00057C13.9996 4.73541 13.8943 4.4811 13.7068 4.29357L10.7068 1.29357C10.6145 1.19806 10.5042 1.12188 10.3822 1.06947C10.2602 1.01706 10.129 0.989473 9.99619 0.988319C9.86341 0.987165 9.73173 1.01247 9.60883 1.06275C9.48594 1.11303 9.37428 1.18728 9.28039 1.28117C9.1865 1.37507 9.11225 1.48672 9.06196 1.60962C9.01168 1.73251 8.98638 1.86419 8.98754 1.99697C8.98869 2.12975 9.01628 2.26097 9.06868 2.38297C9.12109 2.50498 9.19728 2.61532 9.29279 2.70757L10.5858 4.00057H4.99979ZM8.99979 14.0006C9.265 14.0006 9.51936 13.8952 9.70689 13.7077C9.89443 13.5201 9.99979 13.2658 9.99979 13.0006C9.99979 12.7354 9.89443 12.481 9.70689 12.2935C9.51936 12.1059 9.265 12.0006 8.99979 12.0006H3.41379L4.70679 10.7076C4.8023 10.6153 4.87848 10.505 4.93089 10.383C4.9833 10.261 5.01088 10.1297 5.01204 9.99697C5.01319 9.86419 4.98789 9.73251 4.93761 9.60962C4.88733 9.48672 4.81307 9.37507 4.71918 9.28117C4.62529 9.18728 4.51364 9.11303 4.39074 9.06275C4.26784 9.01247 4.13616 8.98716 4.00339 8.98832C3.87061 8.98947 3.73939 9.01706 3.61738 9.06947C3.49538 9.12188 3.38503 9.19806 3.29279 9.29357L0.292786 12.2936C0.105315 12.4811 0 12.7354 0 13.0006C0 13.2657 0.105315 13.52 0.292786 13.7076L3.29279 16.7076C3.48139 16.8897 3.73399 16.9905 3.99619 16.9882C4.25838 16.986 4.5092 16.8808 4.6946 16.6954C4.88001 16.51 4.98518 16.2592 4.98746 15.997C4.98974 15.7348 4.88894 15.4822 4.70679 15.2936L3.41379 14.0006H8.99979Z" fill="#7B8CB5"/>
</svg>
