<svg width="5" height="20" viewBox="0 0 5 20" fill="none" xmlns="http://www.w3.org/2000/svg">
<path d="M4.3125 17.25C4.3125 17.8467 4.08532 18.419 3.68095 18.841C3.27657 19.2629 2.72812 19.5 2.15625 19.5C1.58438 19.5 1.03593 19.2629 0.631551 18.841C0.227175 18.419 0 17.8467 0 17.25C0 16.6533 0.227175 16.081 0.631551 15.659C1.03593 15.2371 1.58438 15 2.15625 15C2.72812 15 3.27657 15.2371 3.68095 15.659C4.08532 16.081 4.3125 16.6533 4.3125 17.25ZM4.3125 9.75C4.3125 10.3467 4.08532 10.919 3.68095 11.341C3.27657 11.7629 2.72812 12 2.15625 12C1.58438 12 1.03593 11.7629 0.631551 11.341C0.227175 10.919 0 10.3467 0 9.75C0 9.15326 0.227175 8.58097 0.631551 8.15901C1.03593 7.73705 1.58438 7.5 2.15625 7.5C2.72812 7.5 3.27657 7.73705 3.68095 8.15901C4.08532 8.58097 4.3125 9.15326 4.3125 9.75V9.75ZM4.3125 2.25C4.3125 2.84674 4.08532 3.41903 3.68095 3.84099C3.27657 4.26295 2.72812 4.5 2.15625 4.5C1.58438 4.5 1.03593 4.26295 0.631551 3.84099C0.227175 3.41903 0 2.84674 0 2.25C0 1.65326 0.227175 1.08097 0.631551 0.65901C1.03593 0.237053 1.58438 0 2.15625 0C2.72812 0 3.27657 0.237053 3.68095 0.65901C4.08532 1.08097 4.3125 1.65326 4.3125 2.25V2.25Z" fill="#989CAC"/>
</svg>
