<svg width="50" height="50" viewBox="0 0 50 50" fill="none" xmlns="http://www.w3.org/2000/svg">
<circle cx="25" cy="25" r="25" fill="#F7F8FA"/>
<path d="M25.0013 14.168C19.0278 14.168 14.168 19.0278 14.168 25.0013C14.168 30.9748 19.0278 35.8346 25.0013 35.8346C30.9748 35.8346 35.8346 30.9748 35.8346 25.0013C35.8346 19.0278 30.9748 14.168 25.0013 14.168ZM25.0013 33.668C20.2227 33.668 16.3346 29.7799 16.3346 25.0013C16.3346 20.2227 20.2227 16.3346 25.0013 16.3346C29.7799 16.3346 33.668 20.2227 33.668 25.0013C33.668 29.7799 29.7799 33.668 25.0013 33.668Z" fill="#313A5A"/>
<path d="M26.0846 19.582H23.918V26.082H30.418V23.9154H26.0846V19.582Z" fill="#313A5A"/>
</svg>
