<svg width="18" height="22" viewBox="0 0 18 22" fill="none" xmlns="http://www.w3.org/2000/svg">
<path d="M12.5298 9.77275C13.6617 9.10072 14.5995 8.14627 15.2517 7.00287C15.9038 5.85946 16.2478 4.5663 16.25 3.25V2.16667H17.3333V0H0V2.16667H1.08333V3.25C1.08553 4.5663 1.42953 5.85946 2.08166 7.00287C2.73379 8.14627 3.67168 9.10072 4.8035 9.77275C5.187 9.99808 5.41667 10.3632 5.41667 10.7477V10.9189C5.41667 11.3024 5.187 11.6664 4.8035 11.8939C3.67168 12.5659 2.73379 13.5204 2.08166 14.6638C1.42953 15.8072 1.08553 17.1004 1.08333 18.4167V19.5H0V21.6667H17.3333V19.5H16.25V18.4167C16.2479 17.1006 15.9041 15.8077 15.2522 14.6644C14.6002 13.5212 13.6625 12.5669 12.5309 11.895C12.1463 11.6675 11.9167 11.3024 11.9167 10.9189V10.7477C11.9167 10.3632 12.1463 9.99808 12.5298 9.77275ZM11.4302 13.7605C12.2377 14.2405 12.9068 14.922 13.3718 15.7381C13.8369 16.5543 14.082 17.4773 14.0833 18.4167V19.5H3.25V18.4167C3.25142 17.477 3.49676 16.5539 3.962 15.7375C4.42725 14.9211 5.09646 14.2395 5.90417 13.7594C6.95608 13.1387 7.58333 12.0759 7.58333 10.9189V10.7477C7.58333 9.58967 6.955 8.52583 5.90308 7.90617C5.0956 7.42616 4.42658 6.74471 3.96152 5.92853C3.49645 5.11234 3.25128 4.18938 3.25 3.25V2.16667H14.0833V3.25C14.0833 5.15667 13.0672 6.93983 11.4302 7.90617C10.3783 8.52583 9.75 9.58967 9.75 10.7477V10.9189C9.75 12.0759 10.3772 13.1387 11.4302 13.7605V13.7605Z" fill="currentColor"/>
</svg>
