<svg width="59" height="56" viewBox="0 0 59 56" fill="none" xmlns="http://www.w3.org/2000/svg">
<path d="M58.3625 35.9942L51.0798 28.6992C50.7157 28.3327 50.2826 28.0421 49.8057 27.8443C49.3287 27.6465 48.8173 27.5454 48.3011 27.5469H31.4334V23.6116H49.1152C50.1573 23.6116 51.1567 23.197 51.8936 22.459C52.6305 21.721 53.0445 20.72 53.0445 19.6763V7.87054C53.0445 6.82684 52.6305 5.82589 51.8936 5.08788C51.1567 4.34988 50.1573 3.93527 49.1152 3.93527H31.4334V1.96763C31.4334 1.44578 31.2264 0.945309 30.858 0.576307C30.4895 0.207304 29.9898 0 29.4688 0C28.9477 0 28.448 0.207304 28.0795 0.576307C27.7111 0.945309 27.5041 1.44578 27.5041 1.96763V3.93527H10.6364C10.1202 3.93384 9.60879 4.03494 9.13182 4.23273C8.65486 4.43052 8.22179 4.72107 7.85767 5.08756L0.574976 12.3826C0.206812 12.7515 0 13.2518 0 13.7734C0 14.2951 0.206812 14.7953 0.574976 15.1643L7.85767 22.4593C8.22179 22.8258 8.65486 23.1164 9.13182 23.3141C9.60879 23.5119 10.1202 23.613 10.6364 23.6116H27.5041V27.5469H9.82231C8.7802 27.5469 7.78077 27.9615 7.04388 28.6995C6.307 29.4375 5.89302 30.4384 5.89302 31.4821V43.2879C5.89302 44.3316 6.307 45.3326 7.04388 46.0706C7.78077 46.8086 8.7802 47.2232 9.82231 47.2232H27.5041V53.1261C27.5041 53.648 27.7111 54.1484 28.0795 54.5174C28.448 54.8864 28.9477 55.0938 29.4688 55.0938C29.9898 55.0938 30.4895 54.8864 30.858 54.5174C31.2264 54.1484 31.4334 53.648 31.4334 53.1261V47.2232H48.3011C48.8173 47.2246 49.3287 47.1235 49.8057 46.9258C50.2826 46.728 50.7157 46.4374 51.0798 46.0709L58.3625 38.7759C58.7307 38.407 58.9375 37.9067 58.9375 37.385C58.9375 36.8634 58.7307 36.3631 58.3625 35.9942V35.9942Z" fill="currentColor"/>
</svg>
