<svg width="16" height="16" viewBox="0 0 16 16" fill="none" xmlns="http://www.w3.org/2000/svg">
<path d="M7.08198 0H5.46052C5.2455 0 5.03929 0.0842838 4.88725 0.23431C4.73521 0.384336 4.64979 0.587816 4.64979 0.799985C4.64979 1.01215 4.73521 1.21563 4.88725 1.36566C5.03929 1.51569 5.2455 1.59997 5.46052 1.59997V3.19994H4.50062C4.59665 2.94374 4.64712 2.6731 4.64979 2.39995C4.64977 1.87166 4.47309 1.35814 4.14716 0.939022C3.82122 0.519906 3.36425 0.218618 2.84711 0.0818842C2.32996 -0.0548498 1.78154 -0.0193893 1.2869 0.182766C0.792265 0.384922 0.379044 0.742476 0.111327 1.19998C0.057253 1.29099 0.021958 1.39166 0.00747371 1.49619C-0.00701057 1.60072 -0.000397918 1.70705 0.0269308 1.80904C0.0542595 1.91104 0.101764 2.0067 0.166711 2.0905C0.231657 2.17431 0.312762 2.24462 0.405356 2.29737C0.49795 2.35012 0.600204 2.38428 0.706231 2.39788C0.812258 2.41148 0.919964 2.40425 1.02315 2.3766C1.12633 2.34896 1.22296 2.30145 1.30746 2.23681C1.39196 2.17217 1.46266 2.09168 1.51551 1.99996C1.58679 1.87846 1.68916 1.77756 1.81237 1.70737C1.93559 1.63717 2.07533 1.60013 2.2176 1.59997C2.43262 1.59997 2.63883 1.68425 2.79087 1.83428C2.94292 1.98431 3.02833 2.18779 3.02833 2.39995C3.02833 2.61212 2.94292 2.8156 2.79087 2.96563C2.63883 3.11566 2.43262 3.19994 2.2176 3.19994C2.00258 3.19994 1.79637 3.28422 1.64433 3.43425C1.49229 3.58428 1.40687 3.78775 1.40687 3.99992C1.40687 4.21209 1.49229 4.41557 1.64433 4.5656C1.79637 4.71562 2.00258 4.79991 2.2176 4.79991C2.43262 4.79991 2.63883 4.88419 2.79087 5.03422C2.94292 5.18425 3.02833 5.38772 3.02833 5.59989C3.02833 5.81206 2.94292 6.01554 2.79087 6.16557C2.63883 6.31559 2.43262 6.39988 2.2176 6.39988C2.07533 6.39971 1.93559 6.36268 1.81237 6.29248C1.68916 6.22229 1.58679 6.12139 1.51551 5.99989C1.46266 5.90817 1.39196 5.82768 1.30746 5.76304C1.22296 5.6984 1.12633 5.65089 1.02315 5.62325C0.919964 5.5956 0.812258 5.58837 0.706231 5.60197C0.600204 5.61557 0.49795 5.64973 0.405356 5.70248C0.312762 5.75523 0.231657 5.82554 0.166711 5.90934C0.101764 5.99315 0.0542595 6.08881 0.0269308 6.19081C-0.000397918 6.2928 -0.00701057 6.39913 0.00747371 6.50366C0.021958 6.60819 0.057253 6.70886 0.111327 6.79987C0.379044 7.25737 0.792265 7.61493 1.2869 7.81708C1.78154 8.01924 2.32996 8.0547 2.84711 7.91796C3.36425 7.78123 3.82122 7.47994 4.14716 7.06083C4.47309 6.64171 4.64977 6.12819 4.64979 5.59989C4.64712 5.32675 4.59665 5.05611 4.50062 4.79991H5.46052V7.19986C5.46052 7.41203 5.54593 7.61551 5.69798 7.76554C5.85002 7.91556 6.05623 7.99985 6.27125 7.99985C6.48627 7.99985 6.69248 7.91556 6.84452 7.76554C6.99656 7.61551 7.08198 7.41203 7.08198 7.19986V1.59997C7.297 1.59997 7.50321 1.51569 7.65525 1.36566C7.80729 1.21563 7.89271 1.01215 7.89271 0.799985C7.89271 0.587816 7.80729 0.384336 7.65525 0.23431C7.50321 0.0842838 7.297 0 7.08198 0ZM9.51417 3.99992H10.3249C10.5398 4.00014 10.7459 4.08449 10.8979 4.23447C11.0499 4.38445 11.1354 4.5878 11.1356 4.79991V5.59989C11.1356 5.81206 11.221 6.01554 11.3731 6.16557C11.5251 6.31559 11.7313 6.39988 11.9464 6.39988C12.1614 6.39988 12.3676 6.31559 12.5196 6.16557C12.6717 6.01554 12.7571 5.81206 12.7571 5.59989V4.79991C12.7564 4.1636 12.5 3.55353 12.044 3.10359C11.588 2.65365 10.9698 2.40059 10.3249 2.39995H9.51417C9.29915 2.39995 9.09293 2.48424 8.94089 2.63426C8.78885 2.78429 8.70344 2.98777 8.70344 3.19994C8.70344 3.41211 8.78885 3.61559 8.94089 3.76561C9.09293 3.91564 9.29915 3.99992 9.51417 3.99992ZM6.27125 11.1998H5.46052C5.24557 11.1996 5.03948 11.1152 4.88748 10.9652C4.73549 10.8153 4.65 10.6119 4.64979 10.3998V9.59982C4.64979 9.38765 4.56437 9.18417 4.41233 9.03414C4.26029 8.88412 4.05408 8.79983 3.83906 8.79983C3.62404 8.79983 3.41783 8.88412 3.26579 9.03414C3.11375 9.18417 3.02833 9.38765 3.02833 9.59982V10.3998C3.02897 11.0361 3.28543 11.6462 3.74141 12.0961C4.1974 12.5461 4.81566 12.7991 5.46052 12.7998H6.27125C6.48627 12.7998 6.69248 12.7155 6.84452 12.5654C6.99656 12.4154 7.08198 12.2119 7.08198 11.9998C7.08198 11.7876 6.99656 11.5841 6.84452 11.4341C6.69248 11.2841 6.48627 11.1998 6.27125 11.1998Z" fill="#2176FF"/>
<path d="M8.58188 14C8.42433 14 8.29491 13.958 8.19363 13.8741C8.09797 13.7902 8.03608 13.6773 8.00794 13.5353C7.98544 13.3933 8.01076 13.2351 8.08391 13.0609L10.2446 7.62932C10.3346 7.40987 10.4415 7.25173 10.5653 7.15491C10.6891 7.05164 10.8326 7 10.9958 7C11.159 7 11.3024 7.05164 11.4262 7.15491C11.55 7.25173 11.6541 7.40987 11.7385 7.62932L13.9161 13.0609C13.9892 13.2351 14.0146 13.3965 13.9921 13.545C13.9752 13.687 13.9189 13.7999 13.8233 13.8838C13.7276 13.9613 13.6038 14 13.4519 14C13.2606 14 13.1115 13.9484 13.0046 13.8451C12.9033 13.7418 12.8132 13.5805 12.7345 13.361L12.2281 12.0152L12.7513 12.4315H9.23178L9.75507 12.0152L9.2571 13.361C9.17269 13.5869 9.08266 13.7515 8.98701 13.8548C8.89698 13.9516 8.76194 14 8.58188 14ZM10.9789 8.68465L9.89855 11.6376L9.67067 11.26H12.3125L12.0846 11.6376L10.9958 8.68465H10.9789Z" fill="#2176FF" stroke="#2176FF" stroke-width="0.5"/>
</svg>
