<svg width="20" height="22" viewBox="0 0 20 22" fill="none" xmlns="http://www.w3.org/2000/svg">
<path d="M2.41667 19.668C2.41667 20.2426 2.64494 20.7937 3.05127 21.2C3.4576 21.6064 4.0087 21.8346 4.58333 21.8346H15.4167C15.9913 21.8346 16.5424 21.6064 16.9487 21.2C17.3551 20.7937 17.5833 20.2426 17.5833 19.668V6.66797H19.75V4.5013H15.4167V2.33464C15.4167 1.76 15.1884 1.2089 14.7821 0.802571C14.3757 0.396242 13.8246 0.167969 13.25 0.167969H6.75C6.17536 0.167969 5.62426 0.396242 5.21794 0.802571C4.81161 1.2089 4.58333 1.76 4.58333 2.33464V4.5013H0.25V6.66797H2.41667V19.668ZM6.75 2.33464H13.25V4.5013H6.75V2.33464ZM5.66667 6.66797H15.4167V19.668H4.58333V6.66797H5.66667Z" fill="#E80B0B"/>
<path d="M6.75 8.83203H8.91667V17.4987H6.75V8.83203ZM11.0833 8.83203H13.25V17.4987H11.0833V8.83203Z" fill="#E80B0B"/>
</svg>
