<svg width="22" height="16" viewBox="0 0 22 16" fill="none" xmlns="http://www.w3.org/2000/svg">
<path d="M11.9167 15.1667V10.8334H15.1667L10.8333 5.41669L6.5 10.8334H9.75V15.1667H11.9167Z" fill="#7B8CB5"/>
<path d="M5.41667 15.1667H7.58333V13H5.41667C3.62483 13 2.16667 11.5418 2.16667 9.75C2.16667 8.229 3.46558 6.76433 5.06242 6.48375L5.69183 6.37325L5.89983 5.76875C6.66142 3.54683 8.55292 2.16667 10.8333 2.16667C13.8201 2.16667 16.25 4.59658 16.25 7.58334V8.66667H17.3333C18.5283 8.66667 19.5 9.63842 19.5 10.8333C19.5 12.0283 18.5283 13 17.3333 13H14.0833V15.1667H17.3333C19.7232 15.1667 21.6667 13.2232 21.6667 10.8333C21.665 9.86225 21.338 8.91971 20.7379 8.15624C20.1378 7.39276 19.2992 6.85236 18.356 6.62134C17.8826 2.8925 14.69 0 10.8333 0C7.84767 0 5.25417 1.74525 4.07008 4.49583C1.74308 5.19133 0 7.38834 0 9.75C0 12.7368 2.42992 15.1667 5.41667 15.1667Z" fill="#7B8CB5"/>
<path d="M5.41667 15.1667H7.58333V13H5.41667C3.62483 13 2.16667 11.5418 2.16667 9.75C2.16667 8.229 3.46558 6.76433 5.06242 6.48375L5.69183 6.37325L5.89983 5.76875C6.66142 3.54683 8.55292 2.16667 10.8333 2.16667C13.8201 2.16667 16.25 4.59658 16.25 7.58334V8.66667H17.3333C18.5283 8.66667 19.5 9.63842 19.5 10.8333C19.5 12.0283 18.5283 13 17.3333 13H14.0833V15.1667H17.3333C19.7232 15.1667 21.6667 13.2232 21.6667 10.8333C21.665 9.86225 21.338 8.91971 20.7379 8.15624C20.1378 7.39276 19.2992 6.85236 18.356 6.62134C17.8826 2.8925 14.69 0 10.8333 0C7.84767 0 5.25417 1.74525 4.07008 4.49583C1.74308 5.19133 0 7.38834 0 9.75C0 12.7368 2.42992 15.1667 5.41667 15.1667Z" fill="#7B8CB5"/>
</svg>
