<svg width="20" height="22" viewBox="0 0 20 22" fill="none" xmlns="http://www.w3.org/2000/svg">
<path d="M9.75002 8.66671C10.9969 8.66671 11.9167 7.74804 11.9167 6.50004C11.9167 5.25204 10.9969 4.33337 9.75002 4.33337C8.50419 4.33337 7.58335 5.25204 7.58335 6.50004C7.58335 7.74804 8.50419 8.66671 9.75002 8.66671ZM9.75002 9.75004C7.35694 9.75004 5.41669 11.4964 5.41669 13.65V14.0682H14.0834V13.65C14.0834 11.4964 12.1431 9.75004 9.75002 9.75004Z" fill="#313A5A"/>
<path d="M17.3333 0H2.16667C0.97175 0 0 0.97175 0 2.16667V16.25C0 17.4449 0.97175 18.4167 2.16667 18.4167H6.5L9.75 21.6667L13 18.4167H17.3333C18.5283 18.4167 19.5 17.4449 19.5 16.25V2.16667C19.5 0.97175 18.5283 0 17.3333 0ZM11.9167 16.25L9.75 18.4167L7.58333 16.25H2.16667V2.16667H17.3333L17.3355 16.25H11.9167Z" fill="#313A5A"/>
</svg>
