<svg width="20" height="15" viewBox="0 0 20 15" fill="none" xmlns="http://www.w3.org/2000/svg">
<path d="M19.977 9.783L17.977 0.783C17.9273 0.560942 17.8034 0.362427 17.6259 0.220116C17.4483 0.0778054 17.2276 0.000175912 17 0H14V2H16.198L17.159 6.326C16.6318 6.11272 16.0687 6.00207 15.5 6C13.547 6 11.897 7.258 11.276 9H8.723C8.102 7.258 6.452 6 4.499 6C3.912 6 3.354 6.121 2.84 6.326L3.802 2H6V0H3C2.77252 3.90378e-05 2.55184 0.0776382 2.3744 0.21999C2.19697 0.362341 2.07336 0.560937 2.024 0.783L0.0239999 9.783L0.0710001 9.794C0.0289998 10.0271 0.00526092 10.2632 0 10.5C0 12.981 2.019 15 4.5 15C6.81 15 8.697 13.244 8.949 11H11.051C11.303 13.244 13.19 15 15.5 15C17.981 15 20 12.981 20 10.5C20 10.258 19.966 10.025 19.929 9.794L19.977 9.783V9.783ZM4.5 13C3.122 13 2 11.878 2 10.5C2 9.122 3.122 8 4.5 8C5.878 8 7 9.122 7 10.5C7 11.878 5.878 13 4.5 13ZM15.5 13C14.121 13 13 11.878 13 10.5C13 9.122 14.121 8 15.5 8C16.879 8 18 9.122 18 10.5C18 11.878 16.879 13 15.5 13Z" fill="#5A617B"/>
</svg>
