<svg width="15" height="21" viewBox="0 0 15 21" fill="none" xmlns="http://www.w3.org/2000/svg">
<path d="M8.895 4C9.99957 4 10.895 3.10457 10.895 2C10.895 0.89543 9.99957 0 8.895 0C7.79043 0 6.895 0.89543 6.895 2C6.895 3.10457 7.79043 4 8.895 4Z" fill="currentColor"/>
<path d="M9.873 10.27C10.118 10.638 10.484 10.917 10.904 11.057L13.579 11.949L14.212 10.053L11.537 9.161L9.874 6.666C9.68051 6.37714 9.41559 6.14324 9.105 5.987L7.671 5.27C7.24439 5.05672 6.75534 5.00384 6.293 5.121L3.1 5.918C2.81974 5.98783 2.55791 6.11746 2.33248 6.29802C2.10705 6.47857 1.92335 6.70576 1.794 6.964L0 10.553L1.789 11.448L3.583 7.859L5.806 7.303L4.002 15.649L0.328 18.176L1.461 19.824L5.136 17.296C5.557 17.006 5.849 16.571 5.956 16.071L6.473 13.683L8.99 15.571L9.915 20.196L11.876 19.803L10.951 15.176C10.8539 14.694 10.5826 14.2647 10.189 13.97L8.018 12.342L8.665 8.457L9.873 10.27Z" fill="currentColor"/>
</svg>
