<svg width="15" height="16" viewBox="0 0 15 16" fill="none" xmlns="http://www.w3.org/2000/svg">
<path d="M9.978 5.27C10.223 5.638 10.589 5.917 11.009 6.057L13.684 6.949L14.317 5.053L11.642 4.161L9.979 1.666C9.78551 1.37715 9.5206 1.14324 9.21 0.987002L7.776 0.270002C7.34939 0.0567224 6.86034 0.0038426 6.398 0.121002L3.205 0.918002C2.92475 0.987827 2.66292 1.11746 2.43748 1.29802C2.21205 1.47857 2.02836 1.70576 1.899 1.964L0.105003 5.553L1.894 6.448L3.688 2.859L5.911 2.303L4.107 10.649L0.433003 13.176L1.566 14.824L5.241 12.296C5.662 12.006 5.954 11.571 6.061 11.071L6.578 8.683L9.095 10.571L10.02 15.196L11.981 14.803L11.056 10.176C10.9589 9.694 10.6876 9.26467 10.294 8.97L8.123 7.342L8.77 3.457L9.978 5.27V5.27Z" fill="black"/>
</svg>
