<svg width="239" height="317" viewBox="0 0 239 317" fill="none" xmlns="http://www.w3.org/2000/svg">
<path d="M239 119.183C239 173.437 166.18 270.025 134.251 309.877C126.595 319.374 112.405 319.374 104.749 309.877C72.8203 270.025 0 173.437 0 119.183C0 53.3842 53.526 0 119.5 0C185.474 0 239 53.3842 239 119.183Z" fill="currentColor"/>
<circle cx="119.5" cy="121.5" r="76.5" fill="white"/>
<path fill-rule="evenodd" clip-rule="evenodd" d="M115.994 66.8571C121.208 66.8571 125.428 71.2016 125.428 76.4151C125.428 81.6274 121.208 85.9719 115.994 85.9719C110.781 85.9719 106.436 81.6274 106.436 76.4151C106.436 71.2016 110.782 66.8571 115.994 66.8571V66.8571ZM116.615 86.841C120.203 86.7291 122.976 88.9611 124.435 91.3101L134.365 107.819L151.742 115.142C156.707 117.251 154.349 123.83 148.763 122.341C148.564 122.205 148.356 122.081 148.142 121.968L136.475 147.785C136.475 147.785 140.198 156.351 144.915 166.033C149.508 175.838 138.336 180.059 134.24 170.997L130.145 161.812L124.187 174.846L121.704 173.728L128.655 158.585L116.987 133.141C116.491 133.264 115.994 133.141 115.373 133.141C115.373 133.141 101.844 163.922 98.1191 171.991C94.5204 180.059 83.8464 175.218 87.4451 167.273C91.0451 159.33 108.175 120.727 108.175 120.727L95.4423 120.936C93.5137 120.952 93.0521 120.645 92.93 119.2C92.7333 115.381 92.3964 106.397 93.2797 102.232C94.4188 96.8644 95.099 90.9566 98.8648 89.199C102.632 87.4414 109.167 92.3027 109.167 92.3027C110.16 89.0756 113.264 86.841 116.615 86.841V86.841ZM124.31 106.204V121.101L134.986 144.437L145.66 120.977L130.145 114.522C129.399 114.15 128.78 113.653 128.282 112.909L124.31 106.204Z" fill="currentColor"/>
</svg>
