<svg width="17" height="15" viewBox="0 0 17 15" fill="none" xmlns="http://www.w3.org/2000/svg">
<path d="M11.4753 10C11.3628 8.98617 10.9091 8.04061 10.1887 7.31839C9.46833 6.59617 8.52393 6.14014 7.51036 6.02507C6.49678 5.91 5.47419 6.14271 4.61022 6.68505C3.74626 7.2274 3.09219 8.04719 2.75527 9.01003C1.98321 9.07322 1.26552 9.43261 0.752432 10.013C0.239344 10.5933 -0.0293659 11.3496 0.00254968 12.1236C0.0344652 12.8976 0.364532 13.6293 0.923659 14.1654C1.48279 14.7015 2.22763 15.0006 3.00227 15H11.5023C12.1653 15 12.8012 14.7366 13.27 14.2678C13.7389 13.799 14.0023 13.1631 14.0023 12.5C14.0023 11.837 13.7389 11.2011 13.27 10.7323C12.8012 10.2634 12.1653 10 11.5023 10H11.4753Z" fill="currentColor"/>
<path d="M10.5023 0.5C10.5023 0.367392 10.4496 0.240215 10.3558 0.146447C10.262 0.0526784 10.1349 0 10.0023 0C9.86964 0 9.74247 0.0526784 9.6487 0.146447C9.55493 0.240215 9.50225 0.367392 9.50225 0.5V1.5C9.50225 1.63261 9.55493 1.75979 9.6487 1.85355C9.74247 1.94732 9.86964 2 10.0023 2C10.1349 2 10.262 1.94732 10.3558 1.85355C10.4496 1.75979 10.5023 1.63261 10.5023 1.5V0.5ZM14.2453 2.464C14.293 2.41788 14.3311 2.3627 14.3573 2.3017C14.3835 2.2407 14.3973 2.17509 14.3979 2.1087C14.3985 2.04231 14.3858 1.97647 14.3607 1.91502C14.3355 1.85357 14.2984 1.79775 14.2515 1.7508C14.2045 1.70386 14.1487 1.66673 14.0872 1.64159C14.0258 1.61645 13.9599 1.6038 13.8936 1.60437C13.8272 1.60495 13.7616 1.61874 13.7006 1.64495C13.6395 1.67115 13.5844 1.70924 13.5383 1.757L12.8303 2.464C12.7364 2.55789 12.6836 2.68522 12.6836 2.818C12.6836 2.95078 12.7364 3.07811 12.8303 3.172C12.9241 3.26589 13.0515 3.31863 13.1843 3.31863C13.317 3.31863 13.4444 3.26589 13.5383 3.172L14.2453 2.464V2.464ZM6.46625 1.757C6.37195 1.66592 6.24565 1.61552 6.11455 1.61666C5.98345 1.6178 5.85805 1.67039 5.76534 1.76309C5.67264 1.85579 5.62005 1.9812 5.61892 2.1123C5.61778 2.2434 5.66817 2.3697 5.75925 2.464L6.46625 3.172C6.51274 3.21849 6.56793 3.25536 6.62867 3.28052C6.68941 3.30568 6.75451 3.31863 6.82025 3.31863C6.886 3.31863 6.9511 3.30568 7.01184 3.28052C7.07258 3.25536 7.12776 3.21849 7.17425 3.172C7.22074 3.12551 7.25762 3.07032 7.28278 3.00958C7.30793 2.94884 7.32088 2.88374 7.32088 2.818C7.32088 2.75226 7.30793 2.68716 7.28278 2.62642C7.25762 2.56568 7.22074 2.51049 7.17425 2.464L6.46625 1.757V1.757ZM8.20025 5.131C8.32454 4.87344 8.50262 4.64553 8.72247 4.46264C8.94233 4.27975 9.19885 4.14614 9.47473 4.07082C9.75061 3.99549 10.0394 3.98021 10.3217 4.026C10.604 4.07179 10.8732 4.17758 11.1111 4.33625C11.3491 4.49492 11.5502 4.70276 11.701 4.94577C11.8517 5.18878 11.9486 5.46129 11.9851 5.74493C12.0216 6.02858 11.9969 6.31675 11.9126 6.59001C11.8282 6.86327 11.6863 7.11527 11.4963 7.329C11.6953 7.61 11.8683 7.911 12.0123 8.227C12.3511 7.9208 12.6157 7.54126 12.7856 7.11732C12.9556 6.69338 13.0265 6.23623 12.9929 5.78073C12.9594 5.32523 12.8223 4.88339 12.5921 4.48892C12.3619 4.09444 12.0446 3.75774 11.6645 3.50448C11.2844 3.25122 10.8515 3.08809 10.3988 3.02752C9.94614 2.96695 9.48558 3.01055 9.05229 3.15499C8.61899 3.29944 8.22439 3.5409 7.89858 3.86099C7.57277 4.18108 7.32435 4.57133 7.17225 5.002C7.52425 5.013 7.86825 5.057 8.20025 5.131ZM12.6843 9.205C13.2843 9.42 13.8093 9.795 14.2063 10.277C14.2607 10.2329 14.3053 10.1779 14.3371 10.1155C14.3689 10.053 14.3872 9.98464 14.3909 9.91468C14.3946 9.84472 14.3835 9.77477 14.3584 9.70936C14.3333 9.64396 14.2948 9.58455 14.2453 9.535L13.5383 8.828C13.467 8.7563 13.3756 8.70789 13.2763 8.68916C13.1769 8.67043 13.0742 8.68226 12.9817 8.72309C12.8892 8.76392 12.8113 8.83184 12.7582 8.91787C12.7051 9.0039 12.6793 9.10402 12.6843 9.205ZM14.5023 5.5C14.3696 5.5 14.2425 5.55268 14.1487 5.64645C14.0549 5.74021 14.0023 5.86739 14.0023 6C14.0023 6.13261 14.0549 6.25979 14.1487 6.35355C14.2425 6.44732 14.3696 6.5 14.5023 6.5H15.5023C15.6349 6.5 15.762 6.44732 15.8558 6.35355C15.9496 6.25979 16.0023 6.13261 16.0023 6C16.0023 5.86739 15.9496 5.74021 15.8558 5.64645C15.762 5.55268 15.6349 5.5 15.5023 5.5H14.5023Z" fill="currentColor"/>
</svg>
