<svg width="17" height="12" viewBox="0 0 17 12" fill="none" xmlns="http://www.w3.org/2000/svg">
<path d="M11.4753 6.99808C11.3628 5.98421 10.9091 5.03866 10.1887 4.31644C9.46833 3.59422 8.52393 3.13819 7.51036 3.02312C6.49678 2.90804 5.47419 3.14076 4.61022 3.6831C3.74626 4.22545 3.09219 5.04524 2.75527 6.00808C1.98321 6.07127 1.26552 6.43066 0.752432 7.01101C0.239344 7.59137 -0.0293659 8.34769 0.00254968 9.12168C0.0344652 9.89566 0.364532 10.6273 0.923659 11.1634C1.48279 11.6996 2.22763 11.9987 3.00227 11.9981H11.5023C12.1653 11.9945 12.7998 11.7277 13.2661 11.2563C13.7324 10.7849 13.9923 10.1476 13.9888 9.48458C13.9852 8.82153 13.7184 8.18707 13.247 7.72076C12.7756 7.25445 12.1383 6.9945 11.4753 6.99808V6.99808Z" fill="currentColor"/>
<path d="M14.5463 7.77019C14.3096 7.35362 13.99 6.98999 13.6073 6.70173C13.2247 6.41347 12.787 6.2067 12.3213 6.09419C11.9662 4.74983 11.1152 3.58977 9.93956 2.84731C8.76391 2.10485 7.35074 1.83506 5.98425 2.09219C6.36774 1.386 6.95494 0.811616 7.66942 0.443808C8.3839 0.0759988 9.19256 -0.0681978 9.99014 0.0299883C10.7877 0.128174 11.5373 0.464195 12.1412 0.994309C12.7451 1.52442 13.1755 2.22408 13.3763 3.00219C13.9568 2.97255 14.5295 3.14614 14.9959 3.4931C15.4623 3.84007 15.7932 4.33871 15.9317 4.90326C16.0702 5.46782 16.0077 6.063 15.7548 6.58642C15.5019 7.10984 15.0746 7.52878 14.5463 7.77119V7.77019Z" fill="currentColor"/>
</svg>
