<svg width="16" height="16" viewBox="0 0 16 16" fill="none" xmlns="http://www.w3.org/2000/svg">
<path d="M4.15255 11.0259C4.21488 11.0467 4.27251 11.0795 4.32213 11.1226C4.37176 11.1657 4.4124 11.2181 4.44175 11.2769C4.4711 11.3357 4.48857 11.3997 4.49317 11.4652C4.49777 11.5308 4.4894 11.5966 4.46855 11.6589L3.96855 13.1589C3.94972 13.2235 3.91805 13.2836 3.87545 13.3356C3.83285 13.3877 3.78018 13.4306 3.7206 13.4618C3.66103 13.493 3.59577 13.5119 3.52873 13.5173C3.46169 13.5227 3.39424 13.5145 3.33044 13.4932C3.26663 13.472 3.20777 13.438 3.15738 13.3935C3.10699 13.349 3.06611 13.2947 3.03718 13.234C3.00824 13.1733 2.99186 13.1073 2.989 13.0401C2.98615 12.9729 2.99688 12.9059 3.02055 12.8429L3.52055 11.3429C3.56233 11.2171 3.65239 11.113 3.77091 11.0535C3.88943 10.9941 4.02671 10.9841 4.15255 11.0259ZM7.15255 11.0259C7.21488 11.0467 7.27251 11.0795 7.32213 11.1226C7.37176 11.1657 7.4124 11.2181 7.44175 11.2769C7.4711 11.3357 7.48857 11.3997 7.49317 11.4652C7.49777 11.5308 7.4894 11.5966 7.46855 11.6589L6.46855 14.6589C6.44972 14.7235 6.41805 14.7836 6.37545 14.8356C6.33285 14.8877 6.28018 14.9306 6.2206 14.9618C6.16103 14.993 6.09577 15.0119 6.02873 15.0173C5.96169 15.0227 5.89424 15.0145 5.83044 14.9932C5.76663 14.972 5.70777 14.938 5.65738 14.8935C5.60699 14.849 5.56611 14.7947 5.53718 14.734C5.50824 14.6733 5.49186 14.6073 5.489 14.5401C5.48615 14.4729 5.49688 14.4059 5.52055 14.3429L6.52055 11.3429C6.56233 11.2171 6.65239 11.113 6.77091 11.0535C6.88943 10.9941 7.02671 10.9841 7.15255 11.0259V11.0259ZM10.1526 11.0259C10.2149 11.0467 10.2725 11.0795 10.3221 11.1226C10.3718 11.1657 10.4124 11.2181 10.4418 11.2769C10.4711 11.3357 10.4886 11.3997 10.4932 11.4652C10.4978 11.5308 10.4894 11.5966 10.4686 11.6589L9.96855 13.1589C9.94972 13.2235 9.91805 13.2836 9.87545 13.3356C9.83285 13.3877 9.78018 13.4306 9.7206 13.4618C9.66103 13.493 9.59577 13.5119 9.52873 13.5173C9.46169 13.5227 9.39424 13.5145 9.33044 13.4932C9.26663 13.472 9.20777 13.438 9.15738 13.3935C9.10699 13.349 9.06611 13.2947 9.03718 13.234C9.00824 13.1733 8.99186 13.1073 8.989 13.0401C8.98615 12.9729 8.99688 12.9059 9.02055 12.8429L9.52055 11.3429C9.56233 11.2171 9.65239 11.113 9.77091 11.0535C9.88943 10.9941 10.0267 10.9841 10.1526 11.0259ZM13.1526 11.0259C13.2149 11.0467 13.2725 11.0795 13.3221 11.1226C13.3718 11.1657 13.4124 11.2181 13.4418 11.2769C13.4711 11.3357 13.4886 11.3997 13.4932 11.4652C13.4978 11.5308 13.4894 11.5966 13.4686 11.6589L12.4686 14.6589C12.4497 14.7235 12.4181 14.7836 12.3755 14.8356C12.3328 14.8877 12.2802 14.9306 12.2206 14.9618C12.161 14.993 12.0958 15.0119 12.0287 15.0173C11.9617 15.0227 11.8942 15.0145 11.8304 14.9932C11.7666 14.972 11.7078 14.938 11.6574 14.8935C11.607 14.849 11.5661 14.7947 11.5372 14.734C11.5082 14.6733 11.4919 14.6073 11.489 14.5401C11.4861 14.4729 11.4969 14.4059 11.5206 14.3429L12.5206 11.3429C12.5623 11.2171 12.6524 11.113 12.7709 11.0535C12.8894 10.9941 13.0267 10.9841 13.1526 11.0259ZM13.3996 4.0279C13.1919 2.98106 12.6548 2.02811 11.8668 1.30838C11.0787 0.588647 10.0811 0.139885 9.01979 0.0277079C7.95847 -0.0844693 6.88909 0.145821 5.96801 0.684909C5.04694 1.224 4.32248 2.04361 3.90055 3.0239C3.42739 2.96939 2.94808 3.01203 2.49197 3.14921C2.03586 3.28638 1.61255 3.51521 1.24795 3.82168C0.88335 4.12814 0.585139 4.5058 0.371573 4.93153C0.158007 5.35725 0.0335803 5.82209 0.00591111 6.29758C-0.0217581 6.77307 0.0479124 7.2492 0.210657 7.69682C0.373402 8.14445 0.625796 8.55415 0.952386 8.90083C1.27898 9.24752 1.67289 9.5239 2.11001 9.71306C2.54713 9.90221 3.01826 10.0002 3.49455 10.0009H12.9946C13.7557 10.0018 14.4886 9.71332 15.045 9.19397C15.6014 8.67463 15.9396 7.96322 15.9911 7.20385C16.0426 6.44448 15.8035 5.69393 15.3223 5.10424C14.8412 4.51454 14.1538 4.12978 13.3996 4.0279V4.0279Z" fill="currentColor"/>
</svg>
