<svg width="28" height="28" viewBox="0 0 28 28" fill="none" xmlns="http://www.w3.org/2000/svg">
<path d="M28 8.99996C28 10.1819 27.7672 11.3522 27.3149 12.4441C26.8626 13.536 26.1997 14.5282 25.364 15.3639C24.5282 16.1996 23.5361 16.8626 22.4442 17.3149C21.3522 17.7672 20.1819 18 19 18H18.518C18.953 17.096 18.301 16 17.253 16H16V12.395C16 10.988 14.158 10.46 13.413 11.653L9.534 17.858C9.5055 17.9039 9.47947 17.9513 9.456 18H6.5C5.55616 18.0015 4.62338 17.7968 3.767 17.4C1.54 16.4 0 14.263 0 11.786C0 11.74 9.33651e-08 11.693 0.00200009 11.646C-0.0191568 10.7115 0.161468 9.78348 0.531557 8.92518C0.901645 8.06687 1.45249 7.29848 2.14652 6.67241C2.84056 6.04634 3.66145 5.57731 4.55322 5.29732C5.44499 5.01732 6.38666 4.93295 7.314 5.04996C7.50634 4.62686 7.78102 4.24632 8.12201 3.93052C8.463 3.61472 8.86347 3.37 9.30005 3.21063C9.73664 3.05126 10.2006 2.98045 10.6648 3.00231C11.1291 3.02417 11.5843 3.13827 12.004 3.33796C13.1745 1.89163 14.7645 0.84363 16.5551 0.338192C18.3458 -0.167247 20.2491 -0.105278 22.0031 0.515569C23.7571 1.13642 25.2755 2.28562 26.3495 3.80503C27.4234 5.32443 28 7.13933 28 8.99996V8.99996ZM5.51 21.47L3.2 24.63C2.63 25.41 1.54 25.58 0.76 25.01C-0.02 24.44 -0.19 23.35 0.38 22.57L2.69 19.41C3.26 18.63 4.35 18.46 5.13 19.03C5.91 19.6 6.08 20.69 5.51 21.47V21.47ZM10.51 24.12L8.2 27.28C7.63 28.06 6.54 28.23 5.76 27.66C4.98 27.09 4.81 26 5.38 25.22L7.69 22.06C8.26 21.28 9.35 21.11 10.13 21.68C10.91 22.24 11.08 23.34 10.51 24.12ZM19.3 24.63L21.61 21.47C22.18 20.69 22.01 19.6 21.23 19.03C20.45 18.46 19.36 18.63 18.79 19.41L16.48 22.57C15.91 23.35 16.08 24.44 16.86 25.01C17.64 25.58 18.73 25.41 19.3 24.63ZM26.61 24.12L24.3 27.28C23.73 28.06 22.64 28.23 21.86 27.66C21.08 27.09 20.91 26 21.48 25.22L23.79 22.06C24.36 21.28 25.45 21.11 26.23 21.68C27.01 22.24 27.18 23.34 26.61 24.12Z" fill="currentColor"/>
<path d="M12.733 24.9L17.585 17.622C17.6251 17.5618 17.6482 17.4918 17.6517 17.4196C17.6553 17.3473 17.6392 17.2755 17.6051 17.2116C17.571 17.1478 17.5203 17.0944 17.4583 17.0571C17.3963 17.0199 17.3253 17.0001 17.253 17H15.4C15.2939 17 15.1921 16.9578 15.1171 16.8828C15.0421 16.8078 15 16.7061 15 16.6V12.395C15 11.993 14.474 11.842 14.26 12.183L10.382 18.388C10.3441 18.4486 10.3231 18.5182 10.3213 18.5897C10.3195 18.6611 10.3368 18.7318 10.3715 18.7942C10.4062 18.8567 10.457 18.9087 10.5187 18.9449C10.5803 18.9811 10.6505 19.0001 10.722 19H11.6C11.82 19 12 19.18 12 19.4V24.679C11.9999 24.7649 12.0275 24.8485 12.0786 24.9176C12.1298 24.9866 12.2018 25.0373 12.284 25.0622C12.3662 25.0871 12.4543 25.0849 12.5352 25.0558C12.616 25.0268 12.6854 24.9725 12.733 24.901V24.9Z" fill="black"/>
</svg>
