<svg width="16" height="13" viewBox="0 0 16 13" fill="none" xmlns="http://www.w3.org/2000/svg">
<path d="M9.00005 4C11.4651 4 12.8631 5.574 13.0661 7.474H13.1281C14.7141 7.474 16.0001 8.711 16.0001 10.237C16.0001 11.763 14.7141 13 13.1281 13H4.87205C3.28605 13 2.00005 11.763 2.00005 10.237C2.00005 8.767 3.19205 7.566 4.69705 7.479L4.93405 7.474C5.13905 5.561 6.53505 4 9.00005 4ZM3.84305 0C4.51045 0.036195 5.15981 0.229803 5.73805 0.565C6.22082 0.842792 6.64409 1.21302 6.98366 1.65452C7.32323 2.09601 7.57245 2.60012 7.71705 3.138C5.99305 3.518 4.75405 4.678 4.24805 6.279L4.18405 6.5L4.13805 6.687L3.97305 6.717C3.10149 6.89594 2.32181 7.37863 1.77305 8.079C1.1047 7.75963 0.531677 7.27073 0.111052 6.661C0.0565929 6.58167 0.0210584 6.49091 0.00718388 6.39569C-0.00669069 6.30048 0.00146438 6.20335 0.0310214 6.11178C0.0605785 6.02021 0.11075 5.93664 0.177674 5.86751C0.244599 5.79838 0.326492 5.74552 0.417052 5.713C1.79305 5.221 2.53405 4.667 2.95705 3.857C3.42005 2.974 3.50605 2.037 3.19905 0.777C3.17581 0.68179 3.17518 0.582462 3.1972 0.486964C3.21923 0.391465 3.26329 0.302446 3.32588 0.227029C3.38847 0.151612 3.46784 0.09189 3.55764 0.0526416C3.64745 0.0133933 3.74519 -0.00429228 3.84305 0.000999928V0Z" fill="currentColor"/>
</svg>
