<svg width="16" height="16" viewBox="0 0 16 16" fill="none" xmlns="http://www.w3.org/2000/svg">
<path d="M2.62504 11.4999C2.69135 11.4999 2.75494 11.5263 2.80182 11.5731C2.84871 11.62 2.87504 11.6836 2.87504 11.7499V12.3199L3.37604 12.0329C3.43347 12.0019 3.50077 11.9945 3.56354 12.0125C3.62631 12.0304 3.67958 12.0721 3.71197 12.1288C3.74436 12.1855 3.75329 12.2526 3.73686 12.3158C3.72043 12.379 3.67994 12.4332 3.62404 12.4669L3.12904 12.7499L3.62404 13.0329C3.67994 13.0666 3.72043 13.1209 3.73686 13.1841C3.75329 13.2472 3.74436 13.3143 3.71197 13.371C3.67958 13.4277 3.62631 13.4695 3.56354 13.4874C3.50077 13.5053 3.43347 13.498 3.37604 13.4669L2.87504 13.1809V13.7499C2.87504 13.8162 2.84871 13.8798 2.80182 13.9267C2.75494 13.9736 2.69135 13.9999 2.62504 13.9999C2.55874 13.9999 2.49515 13.9736 2.44827 13.9267C2.40138 13.8798 2.37504 13.8162 2.37504 13.7499V13.1799L1.87404 13.4669C1.81662 13.498 1.74932 13.5053 1.68655 13.4874C1.62378 13.4695 1.57051 13.4277 1.53812 13.371C1.50573 13.3143 1.4968 13.2472 1.51323 13.1841C1.52966 13.1209 1.57015 13.0666 1.62604 13.0329L2.12104 12.7499L1.62604 12.4669C1.57015 12.4332 1.52966 12.379 1.51323 12.3158C1.4968 12.2526 1.50573 12.1855 1.53812 12.1288C1.57051 12.0721 1.62378 12.0304 1.68655 12.0125C1.74932 11.9945 1.81662 12.0019 1.87404 12.0329L2.37504 12.3189V11.7499C2.37504 11.6836 2.40138 11.62 2.44827 11.5731C2.49515 11.5263 2.55874 11.4999 2.62504 11.4999V11.4999ZM5.37504 13.4999C5.44135 13.4999 5.50494 13.5263 5.55182 13.5731C5.59871 13.62 5.62504 13.6836 5.62504 13.7499V14.3199L6.12504 14.0329C6.1826 13.9999 6.25091 13.9911 6.31495 14.0084C6.379 14.0258 6.43353 14.0679 6.46654 14.1254C6.49956 14.183 6.50837 14.2513 6.49102 14.3153C6.47367 14.3794 6.4316 14.4339 6.37404 14.4669L5.87905 14.7499L6.37404 15.0329C6.42994 15.0666 6.47043 15.1209 6.48686 15.1841C6.50329 15.2472 6.49436 15.3143 6.46197 15.371C6.42958 15.4277 6.37631 15.4695 6.31354 15.4874C6.25077 15.5053 6.18347 15.498 6.12604 15.4669L5.62504 15.1809V15.7499C5.62504 15.8162 5.59871 15.8798 5.55182 15.9267C5.50494 15.9736 5.44135 15.9999 5.37504 15.9999C5.30874 15.9999 5.24515 15.9736 5.19827 15.9267C5.15138 15.8798 5.12504 15.8162 5.12504 15.7499V15.1799L4.62404 15.4669C4.56662 15.498 4.49932 15.5053 4.43655 15.4874C4.37378 15.4695 4.32051 15.4277 4.28812 15.371C4.25573 15.3143 4.2468 15.2472 4.26323 15.1841C4.27966 15.1209 4.32015 15.0666 4.37604 15.0329L4.87104 14.7499L4.37604 14.4669C4.32015 14.4332 4.27966 14.379 4.26323 14.3158C4.2468 14.2526 4.25573 14.1855 4.28812 14.1288C4.32051 14.0721 4.37378 14.0304 4.43655 14.0125C4.49932 13.9945 4.56662 14.0019 4.62404 14.0329L5.12504 14.3189V13.7499C5.12504 13.6836 5.15138 13.62 5.19827 13.5731C5.24515 13.5263 5.30874 13.4999 5.37504 13.4999V13.4999ZM10.875 13.4999C10.9413 13.4999 11.0049 13.5263 11.0518 13.5731C11.0987 13.62 11.125 13.6836 11.125 13.7499V14.3199L11.625 14.0329C11.6535 14.0166 11.685 14.006 11.7176 14.0018C11.7501 13.9976 11.7832 13.9999 11.815 14.0084C11.8467 14.017 11.8764 14.0318 11.9024 14.0519C11.9284 14.0719 11.9502 14.0969 11.9665 14.1254C11.9829 14.1539 11.9935 14.1854 11.9977 14.2179C12.0019 14.2505 11.9996 14.2836 11.991 14.3153C11.9824 14.347 11.9677 14.3768 11.9476 14.4028C11.9275 14.4288 11.9025 14.4506 11.874 14.4669L11.379 14.7499L11.874 15.0329C11.9299 15.0666 11.9704 15.1209 11.9869 15.1841C12.0033 15.2472 11.9944 15.3143 11.962 15.371C11.9296 15.4277 11.8763 15.4695 11.8135 15.4874C11.7508 15.5053 11.6835 15.498 11.626 15.4669L11.125 15.1809V15.7499C11.125 15.8162 11.0987 15.8798 11.0518 15.9267C11.0049 15.9736 10.9413 15.9999 10.875 15.9999C10.8087 15.9999 10.7452 15.9736 10.6983 15.9267C10.6514 15.8798 10.625 15.8162 10.625 15.7499V15.1799L10.124 15.4669C10.0666 15.498 9.99932 15.5053 9.93655 15.4874C9.87378 15.4695 9.82051 15.4277 9.78812 15.371C9.75573 15.3143 9.7468 15.2472 9.76323 15.1841C9.77966 15.1209 9.82015 15.0666 9.87605 15.0329L10.371 14.7499L9.87605 14.4669C9.82015 14.4332 9.77966 14.379 9.76323 14.3158C9.7468 14.2526 9.75573 14.1855 9.78812 14.1288C9.82051 14.0721 9.87378 14.0304 9.93655 14.0125C9.99932 13.9945 10.0666 14.0019 10.124 14.0329L10.625 14.3189V13.7499C10.625 13.6836 10.6514 13.62 10.6983 13.5731C10.7452 13.5263 10.8087 13.4999 10.875 13.4999V13.4999ZM8.12504 11.4999C8.19135 11.4999 8.25494 11.5263 8.30182 11.5731C8.34871 11.62 8.37504 11.6836 8.37504 11.7499V12.3199L8.87504 12.0329C8.9326 11.9999 9.00091 11.9911 9.06495 12.0084C9.129 12.0258 9.18353 12.0679 9.21655 12.1254C9.24956 12.183 9.25837 12.2513 9.24102 12.3153C9.22367 12.3794 9.1816 12.4339 9.12404 12.4669L8.62904 12.7499L9.12404 13.0329C9.17994 13.0666 9.22043 13.1209 9.23686 13.1841C9.25329 13.2472 9.24436 13.3143 9.21197 13.371C9.17958 13.4277 9.12631 13.4695 9.06354 13.4874C9.00076 13.5053 8.93347 13.498 8.87605 13.4669L8.37504 13.1809V13.7499C8.37504 13.8162 8.34871 13.8798 8.30182 13.9267C8.25494 13.9736 8.19135 13.9999 8.12504 13.9999C8.05874 13.9999 7.99515 13.9736 7.94827 13.9267C7.90138 13.8798 7.87504 13.8162 7.87504 13.7499V13.1799L7.37404 13.4669C7.31662 13.498 7.24932 13.5053 7.18655 13.4874C7.12378 13.4695 7.07051 13.4277 7.03812 13.371C7.00573 13.3143 6.9968 13.2472 7.01323 13.1841C7.02966 13.1209 7.07015 13.0666 7.12604 13.0329L7.62104 12.7499L7.12604 12.4669C7.07015 12.4332 7.02966 12.379 7.01323 12.3158C6.9968 12.2526 7.00573 12.1855 7.03812 12.1288C7.07051 12.0721 7.12378 12.0304 7.18655 12.0125C7.24932 11.9945 7.31662 12.0019 7.37404 12.0329L7.87504 12.3189V11.7499C7.87504 11.6836 7.90138 11.62 7.94827 11.5731C7.99515 11.5263 8.05874 11.4999 8.12504 11.4999V11.4999ZM13.625 11.4999C13.6913 11.4999 13.7549 11.5263 13.8018 11.5731C13.8487 11.62 13.875 11.6836 13.875 11.7499V12.3199L14.375 12.0329C14.4326 11.9999 14.5009 11.9911 14.565 12.0084C14.629 12.0258 14.6835 12.0679 14.7165 12.1254C14.7496 12.183 14.7584 12.2513 14.741 12.3153C14.7237 12.3794 14.6816 12.4339 14.624 12.4669L14.129 12.7499L14.624 13.0329C14.6799 13.0666 14.7204 13.1209 14.7369 13.1841C14.7533 13.2472 14.7444 13.3143 14.712 13.371C14.6796 13.4277 14.6263 13.4695 14.5635 13.4874C14.5008 13.5053 14.4335 13.498 14.376 13.4669L13.875 13.1809V13.7499C13.875 13.8162 13.8487 13.8798 13.8018 13.9267C13.7549 13.9736 13.6913 13.9999 13.625 13.9999C13.5587 13.9999 13.4952 13.9736 13.4483 13.9267C13.4014 13.8798 13.375 13.8162 13.375 13.7499V13.1799L12.874 13.4669C12.8455 13.4841 12.8138 13.4955 12.7808 13.5003C12.7478 13.5051 12.7142 13.5032 12.682 13.4948C12.6497 13.4864 12.6195 13.4717 12.593 13.4514C12.5665 13.4312 12.5444 13.4058 12.5278 13.3769C12.5113 13.348 12.5007 13.316 12.4967 13.2829C12.4927 13.2498 12.4954 13.2163 12.5045 13.1842C12.5137 13.1522 12.5291 13.1223 12.55 13.0963C12.5709 13.0703 12.5967 13.0488 12.626 13.0329L13.121 12.7499L12.626 12.4669C12.5701 12.4332 12.5297 12.379 12.5132 12.3158C12.4968 12.2526 12.5057 12.1855 12.5381 12.1288C12.5705 12.0721 12.6238 12.0304 12.6866 12.0125C12.7493 11.9945 12.8166 12.0019 12.874 12.0329L13.375 12.3189V11.7499C13.375 11.6836 13.4014 11.62 13.4483 11.5731C13.4952 11.5263 13.5587 11.4999 13.625 11.4999V11.4999ZM13.405 4.27692C13.1974 3.23008 12.6603 2.27713 11.8722 1.5574C11.0842 0.83767 10.0866 0.388909 9.02529 0.276731C7.96396 0.164554 6.89458 0.394845 5.97351 0.933932C5.05243 1.47302 4.32797 2.29263 3.90604 3.27292C3.43288 3.21841 2.95357 3.26105 2.49746 3.39823C2.04135 3.53541 1.61804 3.76423 1.25344 4.0707C0.888843 4.37717 0.590632 4.75482 0.377066 5.18055C0.1635 5.60628 0.0390735 6.07111 0.0114043 6.5466C-0.0162649 7.02209 0.0534056 7.49822 0.21615 7.94585C0.378895 8.39347 0.631289 8.80317 0.957879 9.14986C1.28447 9.49654 1.67838 9.77293 2.1155 9.96208C2.55263 10.1512 3.02375 10.2492 3.50004 10.2499H13C13.7612 10.2508 14.4941 9.96234 15.0505 9.44299C15.6069 8.92365 15.9451 8.21224 15.9966 7.45287C16.0481 6.69351 15.809 5.94296 15.3278 5.35326C14.8466 4.76356 14.1593 4.3788 13.405 4.27692V4.27692Z" fill="currentColor"/>
</svg>
